<svg width="25" height="25" viewBox="0 0 25 25" fill="none" xmlns="http://www.w3.org/2000/svg">
<path d="M3.50741 19.6886C3.74435 19.965 3.99431 20.2301 4.25645 20.483C5.14007 21.3477 6.19379 22.0746 7.32419 22.6243C7.7407 22.8182 8.12487 23.0191 8.57498 23.192C8.68745 23.235 8.80234 23.281 8.92311 23.3224C9.04491 23.3608 9.17118 23.3992 9.30319 23.4371C9.43445 23.4779 9.57439 23.5069 9.72072 23.537C9.86718 23.5663 10.0193 23.5997 10.1826 23.6163C9.37234 23.4465 8.58259 23.1913 7.82671 22.8552C7.06611 22.514 6.3434 22.0949 5.67032 21.6045C4.32227 20.6226 3.16925 19.3619 2.32704 17.9208C2.29227 17.8777 2.23949 17.7957 2.17623 17.6911L2.0745 17.5198L1.97188 17.3227C1.90363 17.186 1.82503 17.0472 1.76484 16.9128C1.71086 16.7952 1.65436 16.6787 1.59537 16.5636C1.85711 17.2118 2.15923 17.7788 2.49752 18.3179C2.65335 18.5652 2.81828 18.8067 2.99199 19.0418C2.96745 19.0089 2.94189 18.9769 2.91748 18.9439C3.10363 19.1988 3.29974 19.4464 3.50536 19.6861L3.50741 19.6886ZM0.782431 13.4751L0.720703 12.9827C0.75342 13.2832 0.791377 13.619 0.860773 13.9553L0.818982 13.7165C0.803557 13.6365 0.791363 13.556 0.782431 13.4751ZM11.5787 23.5815C12.4288 23.667 13.3204 23.6415 14.1936 23.5041C15.0674 23.3673 15.922 23.1245 16.7166 22.8117C15.2532 23.3839 13.7002 23.6384 12.1809 23.5959C11.9776 23.5927 11.7772 23.5959 11.5787 23.5815Z" fill="url(#paint0_linear_152_153)"/>
<path d="M0.725709 10.608C0.834084 9.73122 1.06477 8.87653 1.2842 8.30712L1.19538 8.72392C1.25021 8.6018 1.33877 8.31805 1.45954 8.01778L1.5467 7.78879L1.64294 7.5668C1.70684 7.42308 1.76052 7.28686 1.81713 7.1824C1.77841 7.28038 1.74109 7.38597 1.6961 7.49195C1.65201 7.59831 1.60255 7.70632 1.55539 7.81497L1.74889 7.38178C1.55366 7.86806 1.3856 8.3647 1.24548 8.86942C1.10068 9.42243 0.986168 10.0037 0.924568 10.5254C0.906675 10.6555 0.900413 10.7826 0.888783 10.9038C0.880221 11.0251 0.865396 11.1407 0.864245 11.25C0.858878 11.4684 0.851465 11.6597 0.855172 11.8127C0.868591 12.1188 0.887122 12.2714 0.913832 12.1861C0.966359 12.0167 0.965336 11.1457 1.1486 10.0555C1.24663 9.51215 1.38734 8.91618 1.57827 8.33228C1.7678 7.74788 2.01625 7.18126 2.27351 6.68136L2.19785 6.84554L2.1282 7.01467L1.98557 7.35662L1.85471 7.70988L1.78812 7.88804C1.76857 7.94852 1.74876 8.00926 1.7292 8.07026C1.56051 8.55402 1.43437 9.06345 1.32446 9.57695L1.25302 9.96478C1.22682 10.0936 1.2157 10.2248 1.19627 10.3545C1.15563 10.6139 1.14081 10.8751 1.11819 11.1333C1.09275 11.651 1.08764 12.1624 1.1348 12.6513C1.13288 12.5352 1.13097 12.432 1.13263 12.3321L1.14733 12.0329C1.15346 11.9301 1.15231 11.821 1.16202 11.6961C1.17097 11.5712 1.17915 11.4304 1.1863 11.2638C1.23627 10.4241 1.38721 9.59284 1.62185 8.78834C1.8455 7.98042 2.10929 7.26894 2.50227 6.6243L2.60464 6.43039C2.67391 6.30027 2.73155 6.17193 2.80478 6.04104C2.88823 5.89745 2.96811 5.78995 3.03278 5.69147C3.09936 5.594 3.15585 5.50836 3.22052 5.42525L3.69108 4.77947C3.70067 4.77833 3.68827 4.80298 3.66552 4.83958C3.74311 4.72964 3.82669 4.62401 3.91588 4.52317C4.01237 4.41198 4.10605 4.29405 4.18542 4.19672C4.20408 4.19583 4.22222 4.19532 4.26504 4.16482C5.37052 2.99614 6.73096 2.04373 8.26407 1.44332L8.60491 1.31129L8.94997 1.19705L9.12161 1.14012L9.29542 1.09184L9.64176 0.996151C9.83985 0.948753 10.0405 0.900719 10.2451 0.857515L10.5566 0.803382C10.6612 0.785465 10.7664 0.76526 10.874 0.755349C11.088 0.729807 11.2746 0.675929 11.3751 0.662713C11.9335 0.631072 12.4908 0.637426 13.1451 0.690161C13.1958 0.69105 13.2748 0.695625 13.3664 0.700581C13.458 0.705791 13.5628 0.708332 13.6644 0.717608C13.7835 0.744294 13.9107 0.770725 14.0441 0.79652C14.8581 0.922067 15.6451 1.14648 16.3939 1.44497L16.393 1.44141L16.6798 1.55501L16.9724 1.68946C17.1732 1.77637 17.3699 1.88756 17.5731 1.99227C17.6751 2.04399 17.7717 2.10714 17.8719 2.16432C17.9703 2.22456 18.0733 2.27793 18.1684 2.34375C18.3611 2.47108 18.5565 2.59294 18.7366 2.72903C19.027 2.93735 19.3084 3.15772 19.5801 3.38955C19.586 3.39489 19.5921 3.39985 19.598 3.40506L19.6034 3.40989L19.7896 3.57788L19.9677 3.75463L20.146 3.93152C20.205 3.99086 20.2597 4.0544 20.3169 4.11564C20.2893 4.07117 20.2903 4.05325 20.2913 4.03559C20.2033 3.95172 20.0991 3.85248 19.9962 3.75476C20.1679 3.91004 20.3176 4.05046 20.4406 4.16508C20.488 4.22531 20.5398 4.28452 20.5888 4.3492L20.7404 4.5482L20.9016 4.7552L21.062 4.97783C21.3464 5.33846 21.5976 5.72425 21.836 6.11767C21.9465 6.31946 22.0683 6.51553 22.1665 6.72431L22.3216 7.03386L22.4611 7.35116C22.5013 7.41889 22.4857 7.35395 22.4906 7.34251C22.6472 7.7189 22.7731 8.11029 22.8871 8.50472C23.105 9.21753 23.2509 9.95016 23.3226 10.6918C23.3514 10.8669 23.3637 11.044 23.3891 11.2195L23.3734 11.591C23.3732 11.7312 23.3807 11.8714 23.3746 12.0118L23.3583 12.4344C23.3562 12.5297 23.3424 12.6338 23.3344 12.7469C23.3237 12.8597 23.318 12.9815 23.3017 13.1098L23.249 13.5154C23.2321 13.6576 23.1996 13.8038 23.1745 13.9565C23.0498 14.6272 22.8654 15.2856 22.6234 15.9238C22.5925 16.0288 22.5689 16.1127 22.5478 16.1595C22.4676 16.3503 22.3821 16.5349 22.2996 16.7168C22.2072 16.8939 22.1224 17.071 22.0277 17.2388C21.7349 17.791 21.395 18.3172 21.0119 18.8118C20.9689 18.8676 20.9289 18.9243 20.8857 18.9766L20.7582 19.1299C20.6738 19.2288 20.5984 19.3278 20.5184 19.4137C20.3585 19.5855 20.2243 19.7449 20.0985 19.8647C19.9543 20.0144 19.9672 20.0214 20.067 19.9492C20.1371 19.8978 20.2056 19.8443 20.2725 19.7889L20.5437 19.5456C20.6429 19.4596 20.7378 19.3625 20.8294 19.271C20.9198 19.1789 21.0103 19.0949 21.0801 19.0189C21.2208 18.8676 21.3132 18.7742 21.2935 18.8157C21.0664 19.2408 20.6529 19.7651 20.0484 20.345C19.74 20.628 19.393 20.9356 18.9826 21.232C18.7825 21.3872 18.56 21.5291 18.3331 21.6841C18.0988 21.8268 17.8593 21.9831 17.5974 22.1219C17.0243 22.4322 18.0274 21.9345 18.0545 21.9298C17.9578 22.0055 17.8563 22.0751 17.7508 22.1382C17.5619 22.238 17.3746 22.3411 17.179 22.427C17.0646 22.4792 16.9522 22.5356 16.8366 22.5844L16.4878 22.727L16.6724 22.6548C17.0496 22.5058 17.4022 22.3302 17.7206 22.1565C17.601 22.2284 17.4701 22.3116 17.3267 22.3867C17.173 22.4658 17.0138 22.5522 16.8542 22.6293L16.3909 22.8435C18.0483 22.2449 19.5713 21.2542 20.777 19.9628C21.3806 19.3191 21.9189 18.6119 22.3577 17.8469C22.7993 17.0835 23.1546 16.2738 23.4169 15.4327C23.0139 16.6945 22.3855 17.8537 21.6302 18.8338C23.0033 16.9903 23.8219 14.7302 23.9305 12.3994C23.9303 12.5278 23.9175 12.6558 23.909 12.7837C23.8984 12.9117 23.8933 13.0402 23.8782 13.1678C23.8453 13.4225 23.8218 13.6787 23.7725 13.9313C23.6927 14.4396 23.5634 14.9391 23.4169 15.4327C23.706 14.5405 23.8787 13.5998 23.9467 12.6538C24.0175 11.7069 23.9584 10.7544 23.8116 9.83135C24.0639 11.054 24.1057 12.4394 23.8907 13.8085C24.0418 12.9254 24.0801 12.0152 24.0221 11.1127C24.0091 10.768 23.9682 10.4257 23.9345 10.1087C23.8864 9.79412 23.8499 9.50363 23.8033 9.26868C23.988 10.1361 24.0608 10.8759 24.0963 11.5733C24.0622 10.0513 23.7451 8.50929 23.1225 7.0608C23.4623 7.8475 23.7413 8.6938 23.9117 9.56386C24.0829 10.433 24.1541 11.3223 24.1136 12.1777C24.1117 12.0776 24.1159 11.9776 24.11 11.8771L24.0963 11.5733C24.133 12.952 23.9195 14.3185 23.4962 15.6036C23.2838 16.2461 23.0214 16.8704 22.7038 17.4644C22.3869 18.0576 22.021 18.6236 21.6098 19.1565C22.0793 18.6114 22.5749 17.8408 22.9704 16.9944C23.3642 16.1462 23.6564 15.2289 23.8575 14.4277C23.5617 15.8664 22.9748 17.286 22.1231 18.5538C21.2737 19.8227 20.1612 20.9382 18.874 21.7944C17.5883 22.6533 16.1296 23.2478 14.6327 23.5414C13.8894 23.6882 13.1338 23.7652 12.3761 23.7713C11.6321 23.7752 10.8894 23.7108 10.1573 23.5788L10.5414 23.6513C10.6694 23.6755 10.7993 23.6888 10.9281 23.7079C11.1857 23.7491 11.4463 23.7646 11.706 23.7883C12.2265 23.8174 12.7499 23.8272 13.2716 23.7877C13.7942 23.7601 14.3134 23.6826 14.8302 23.5879C15.0866 23.53 15.346 23.4826 15.5992 23.4082C15.7263 23.3729 15.8548 23.342 15.981 23.3028L16.3586 23.181C16.1679 23.2397 15.9673 23.3175 15.753 23.3746L15.4845 23.4531C16.0479 23.3037 16.5994 23.1127 17.1344 22.8818C17.3791 22.7756 17.6199 22.661 17.8566 22.5381C17.4132 22.7719 16.956 22.9786 16.4873 23.1572C15.5937 23.4888 14.665 23.7182 13.7191 23.8411C13.5773 23.8634 13.4479 23.8704 13.332 23.8825L13.0217 23.913C12.8391 23.9273 12.7043 23.9338 12.6099 23.9441C12.4212 23.9628 12.3943 23.9802 12.4695 23.9946C12.5445 24.0089 12.7214 24.0204 12.9389 24.0265C13.1558 24.0252 13.413 24.0136 13.6471 23.9924C15.9982 23.7526 18.1569 22.8352 19.8868 21.4616C21.6179 20.0879 22.9437 18.263 23.6826 16.1923C23.729 16.0721 23.7647 15.9481 23.8033 15.8251C23.8407 15.7017 23.8821 15.5796 23.916 15.4551C23.9788 15.2047 24.053 14.9573 24.1011 14.7032L24.1802 14.3239L24.2424 13.9411L24.2732 13.7496L24.2952 13.5569L24.3389 13.1713C24.4281 12.1403 24.3928 11.0981 24.2351 10.0755C24.1508 9.49677 24.0025 8.80969 23.8115 8.19771L23.6645 7.75499C23.6134 7.61432 23.5591 7.48166 23.5108 7.35687L23.4396 7.17707L23.3666 7.01556L23.2412 6.74566C22.8407 5.93761 22.3374 5.16691 21.7482 4.4501C21.1597 3.73303 20.4835 3.06908 19.7212 2.4909L19.4344 2.2745L19.137 2.07016L18.988 1.96774L18.8343 1.87168L18.5254 1.68005C18.1042 1.43811 17.6729 1.20493 17.2182 1.01153C16.7682 0.808465 16.2973 0.643652 15.8179 0.496249C15.5757 0.430171 15.3347 0.356469 15.0864 0.305768C14.9626 0.279209 14.84 0.246933 14.7148 0.224696L14.3386 0.158491C13.4389 0.00104853 12.503 -0.0364378 11.568 0.0334519C10.6335 0.105248 9.69506 0.281624 8.79521 0.586089L8.45845 0.702106C8.34586 0.739846 8.23735 0.788769 8.12655 0.831592C8.0169 0.877211 7.90482 0.917112 7.79721 0.967432L7.47361 1.11649C7.36473 1.16427 7.25955 1.21916 7.15462 1.27469L6.83908 1.43951L6.5321 1.61893C6.42986 1.67891 6.32685 1.73749 6.22896 1.8042L5.93195 1.99837C5.83201 2.06152 5.73948 2.13535 5.64299 2.20321C5.54829 2.27361 5.45001 2.33918 5.3585 2.41339L5.08284 2.63411C4.98967 2.70591 4.90174 2.7838 4.81407 2.86182L4.55042 3.09437L4.29852 3.33822C4.21468 3.41942 4.12995 3.49973 4.05186 3.58614C3.4089 4.25936 2.84401 4.99384 2.38201 5.77101C1.92897 6.53342 1.55771 7.34103 1.27436 8.18056C0.715229 9.82233 0.554839 11.4874 0.629475 12.9913C0.613372 12.3722 0.610688 11.4843 0.725709 10.608ZM18.7626 22.1012C19.1509 21.8516 19.5249 21.5805 19.8827 21.2893C19.5198 21.5865 19.1469 21.861 18.7626 22.1012ZM23.9023 15.2035C23.8641 15.3179 23.8318 15.431 23.7896 15.5391L23.6673 15.8597L23.6078 16.0182L23.5422 16.1747C23.4984 16.2801 23.4559 16.386 23.4148 16.4925C23.1781 17.0785 22.8967 17.6456 22.5729 18.1889C22.2508 18.7321 21.8773 19.2412 21.4783 19.7188C21.2813 19.9601 21.0666 20.1839 20.8554 20.4077L20.5256 20.7283C20.4173 20.8361 20.2989 20.9321 20.1866 21.0338C20.0926 21.1151 19.9978 21.1947 19.9023 21.2729C20.2569 20.9833 20.5938 20.6731 20.9114 20.3438C20.4519 20.8173 19.9521 21.2505 19.4175 21.6384C19.2851 21.7301 19.1572 21.8285 19.0197 21.9149L18.6047 22.1778L18.1664 22.4255C18.0172 22.5078 17.8598 22.581 17.7019 22.6612C17.815 22.595 17.9294 22.5311 18.0451 22.4696C18.1756 22.3975 18.3124 22.3124 18.4461 22.2345C18.5808 22.1581 18.7033 22.0742 18.805 22.0041C18.9067 21.934 18.9865 21.8758 19.028 21.8381C18.9687 21.8782 18.9084 21.9165 18.8483 21.9556C18.9129 21.9132 18.9771 21.8702 19.0409 21.8266C19.0382 21.8295 19.0326 21.8341 19.028 21.8381C20.4251 20.8894 21.6153 19.6427 22.5071 18.2214C23.4029 16.8014 23.9858 15.1995 24.2273 13.5704C24.1749 14.2239 24.0545 14.7456 23.9023 15.2035ZM21.9723 5.28547C22.3569 5.86305 22.6893 6.47334 22.9657 7.10921C22.9976 7.17897 23.0278 7.24975 23.0576 7.32066C23.6918 8.86509 23.9804 10.5219 23.9381 12.154C23.9489 11.6139 23.9128 11.0741 23.8526 10.5389C23.7845 9.92208 23.6586 9.31264 23.4917 8.71655C23.1643 7.52118 22.6325 6.3882 21.9575 5.35536C22.0194 5.4405 22.0847 5.53275 22.1524 5.6306C22.2247 5.73186 22.2925 5.83629 22.3556 5.94358L22.274 5.80265L22.186 5.66554L22.0099 5.39158C21.89 5.21063 21.76 5.03628 21.6349 4.85889C21.4992 4.68938 21.3705 4.51427 21.2292 4.3492C21.1224 4.2281 21.02 4.10294 20.9117 3.98336C21.294 4.38428 21.653 4.81441 21.9723 5.28547ZM12.9945 0.146165C13.182 0.156077 13.3699 0.174248 13.5577 0.188226C13.7116 0.20106 13.8647 0.223679 14.0163 0.240707C14.0618 0.242613 14.1098 0.245662 14.1701 0.252397C14.2303 0.260657 14.3023 0.276033 14.3962 0.297381C15.0952 0.413271 15.7329 0.587487 16.1856 0.767421C17.0544 1.09438 17.8627 1.50114 18.5959 1.97092C19.3294 2.43982 19.9875 2.97314 20.5444 3.55564C20.801 3.83253 20.7261 3.77217 20.5846 3.63773L20.797 3.86188C20.703 3.76861 20.6106 3.67407 20.5151 3.58283L20.221 3.31725C20.2926 3.37952 20.4661 3.52857 20.5846 3.63773C19.6403 2.67973 18.5365 1.88426 17.3417 1.29909C16.146 0.714177 14.8584 0.352911 13.5713 0.208684C13.7781 0.231557 13.8795 0.23664 13.9761 0.239182C13.8375 0.223044 13.6984 0.200933 13.5577 0.188226C13.3687 0.1759 13.1801 0.159126 12.9925 0.149977L12.4352 0.136889C12.6198 0.136762 12.8068 0.141844 12.9945 0.146165Z" fill="url(#paint1_linear_152_153)"/>
<path d="M15.4306 23.4688L15.485 23.4529C15.428 23.4681 15.3719 23.4849 15.3145 23.4994C15.3534 23.4897 15.3923 23.4803 15.4306 23.4688ZM21.1154 18.5715C21.6566 17.8616 22.1349 17.0133 22.4402 16.2825L22.4365 16.2832C21.6619 18.1032 20.4055 19.671 18.8376 20.8253C19.116 20.6329 19.3895 20.4337 19.6578 20.2277C20.0026 19.8693 20.5797 19.2866 21.1154 18.5715ZM5.1308 20.693C6.04739 21.5078 7.15274 22.2169 8.38308 22.6945C8.86285 22.8741 9.35246 23.0314 9.85318 23.1422C10.1016 23.206 10.3553 23.2454 10.6071 23.2923C10.7332 23.3145 10.861 23.3268 10.9878 23.3446C11.1148 23.361 11.2416 23.3796 11.3695 23.3869C10.792 23.3233 10.2187 23.228 9.66058 23.0769C9.10286 22.9263 8.55613 22.7402 8.02869 22.5115C7.50399 22.2793 6.99609 22.0112 6.50862 21.7092C6.02477 21.4032 5.56596 21.0615 5.1308 20.693ZM16.4447 22.1456L16.1611 22.2563L15.8715 22.3523C15.6798 22.4209 15.4821 22.4723 15.2849 22.5268C15.4831 22.4772 15.6825 22.431 15.8758 22.3674L16.1676 22.2788L16.4526 22.1752C16.4416 22.1696 16.3767 22.1822 16.4447 22.1456ZM13.097 22.8684C12.9488 22.8809 12.7998 22.8798 12.6505 22.8813C12.5012 22.8831 12.3517 22.8863 12.202 22.8765L12.4035 22.8953C12.4651 22.8992 12.5205 22.9039 12.569 22.9097C12.7455 22.8947 12.9207 22.8905 13.097 22.8684ZM7.18725 21.5016C7.35863 21.6016 7.54062 21.6896 7.7212 21.7867C7.76644 21.8114 7.84849 21.8395 7.95137 21.8768C7.73143 21.7829 7.52068 21.6665 7.30649 21.5585C7.20041 21.5025 7.0983 21.4397 6.99427 21.3812C6.89049 21.3223 6.7871 21.2634 6.68895 21.1976L6.8087 21.2772L6.93356 21.3514L7.18725 21.5016Z" fill="url(#paint2_linear_152_153)"/>
<defs>
<linearGradient id="paint0_linear_152_153" x1="0.720703" y1="12.9827" x2="16.7166" y2="12.9827" gradientUnits="userSpaceOnUse">
<stop stop-color="#905E26"/>
<stop offset="0.5" stop-color="#F5EC9B"/>
<stop offset="1" stop-color="#905E26"/>
</linearGradient>
<linearGradient id="paint1_linear_152_153" x1="0.612305" y1="-0.000244141" x2="24.3869" y2="-0.000244141" gradientUnits="userSpaceOnUse">
<stop stop-color="#905E26"/>
<stop offset="0.5" stop-color="#F5EC9B"/>
<stop offset="1" stop-color="#905E26"/>
</linearGradient>
<linearGradient id="paint2_linear_152_153" x1="5.1308" y1="16.2825" x2="22.4402" y2="16.2825" gradientUnits="userSpaceOnUse">
<stop stop-color="#905E26"/>
<stop offset="0.5" stop-color="#F5EC9B"/>
<stop offset="1" stop-color="#905E26"/>
</linearGradient>
</defs>
</svg>
