<svg width="114" height="82" viewBox="0 0 114 82" fill="none" xmlns="http://www.w3.org/2000/svg">
<path d="M32.0357 47.5704C32.6088 48.2381 33.2134 48.8786 33.8475 49.4896C35.9848 51.5789 38.5336 53.3351 41.2679 54.6633C42.2753 55.1318 43.2046 55.6172 44.2933 56.0351C44.5654 56.1388 44.8433 56.25 45.1354 56.3501C45.43 56.4428 45.7354 56.5355 46.0548 56.6273C46.3722 56.7259 46.7107 56.7959 47.0647 56.8686C47.419 56.9393 47.7868 57.02 48.1819 57.0602C46.222 56.6499 44.3117 56.0334 42.4834 55.2211C40.6436 54.3969 38.8955 53.3841 37.2674 52.1994C34.0067 49.827 31.2177 46.781 29.1805 43.299C29.0965 43.1949 28.9688 42.9966 28.8158 42.7439L28.5697 42.33L28.3215 41.8538C28.1564 41.5235 27.9663 41.1882 27.8207 40.8634C27.6901 40.5793 27.5534 40.298 27.4108 40.0197C28.0439 41.5858 28.7747 42.9558 29.5929 44.2585C29.9698 44.8559 30.3688 45.4393 30.789 46.0076C30.7296 45.9281 30.6678 45.8507 30.6087 45.7709C31.059 46.3869 31.5334 46.9851 32.0307 47.5642L32.0357 47.5704ZM25.4444 32.5574L25.2951 31.3677C25.3742 32.0938 25.466 32.9053 25.6339 33.7177L25.5328 33.1408C25.4955 32.9476 25.466 32.7529 25.4444 32.5574ZM51.5588 56.9761C53.6152 57.1827 55.7717 57.121 57.884 56.7891C59.9975 56.4585 62.0647 55.872 63.9865 55.1161C60.447 56.4987 56.6904 57.1137 53.0155 57.0108C52.5236 57.0031 52.0389 57.0108 51.5588 56.9761Z" fill="url(#paint0_linear_152_48)"/>
<path d="M39.3834 52.7986L39.3034 52.7479C39.3303 52.7648 39.3565 52.782 39.3834 52.7986ZM42.3669 54.431C44.0613 55.2141 45.836 55.8128 47.6601 56.2167C44.6653 55.5382 41.8469 54.3411 39.3834 52.7986C40.3294 53.3964 41.3239 53.9496 42.3669 54.431ZM79.7485 32.8809C79.7788 32.3958 79.84 31.8867 79.8555 31.6445C80.0391 30.0876 80.0935 28.7581 80.0858 27.4244C80.0518 27.184 79.9544 26.7336 79.9158 26.2215C79.8685 25.7081 79.7989 25.2055 79.7402 24.7097C79.6509 24.2182 79.5739 23.7315 79.4762 23.2544C80.1795 26.8211 80.1677 30.4017 79.5207 33.7799C79.5918 33.479 79.6678 33.1793 79.7485 32.8809Z" fill="url(#paint1_linear_152_48)"/>
<path d="M25.3064 25.6312C25.5686 23.5127 26.1265 21.4477 26.6573 20.0719L26.4425 21.0789C26.5751 20.7839 26.7893 20.0983 27.0814 19.3728L27.2923 18.8195L27.525 18.2831C27.6796 17.9359 27.8094 17.6068 27.9464 17.3544C27.8527 17.5911 27.7625 17.8462 27.6536 18.1023C27.547 18.3593 27.4274 18.6203 27.3133 18.8828L27.7813 17.8361C27.3091 19.011 26.9026 20.211 26.5636 21.4305C26.2134 22.7666 25.9364 24.171 25.7874 25.4316C25.7441 25.746 25.729 26.0531 25.7009 26.346C25.6802 26.6389 25.6443 26.9183 25.6415 27.1823C25.6285 27.7101 25.6106 28.1721 25.6196 28.5418C25.652 29.2814 25.6968 29.6502 25.7615 29.4442C25.8885 29.0349 25.886 26.9302 26.3293 24.2963C26.5664 22.9834 26.9068 21.5435 27.3686 20.1327C27.8271 18.7207 28.428 17.3516 29.0503 16.1438L28.8673 16.5405L28.6988 16.9491L28.3538 17.7753L28.0373 18.6289L27.8762 19.0593C27.8289 19.2055 27.781 19.3522 27.7337 19.4996C27.3257 20.6684 27.0205 21.8993 26.7547 23.14L26.5819 24.077C26.5185 24.3884 26.4916 24.7052 26.4446 25.0187C26.3463 25.6453 26.3105 26.2766 26.2558 26.9004C26.1942 28.1513 26.1819 29.3867 26.2959 30.5682C26.2913 30.2876 26.2867 30.0383 26.2907 29.7969L26.3262 29.0739C26.3411 28.8255 26.3383 28.5621 26.3618 28.2603C26.3834 27.9585 26.4032 27.6183 26.4205 27.2158C26.5414 25.1869 26.9065 23.1784 27.474 21.2346C28.015 19.2825 28.6531 17.5635 29.6036 16.0059L29.8513 15.5374C30.0188 15.223 30.1582 14.9129 30.3354 14.5967C30.5372 14.2497 30.7304 13.99 30.8868 13.7521C31.0479 13.5166 31.1845 13.3096 31.341 13.1088L32.4792 11.5485C32.5024 11.5458 32.4724 11.6053 32.4174 11.6938C32.605 11.4281 32.8072 11.1729 33.0229 10.9293C33.2563 10.6606 33.4829 10.3757 33.6749 10.1405C33.72 10.1384 33.7639 10.1371 33.8675 10.0634C36.5415 7.23973 39.8322 4.93857 43.5405 3.48787L44.365 3.16887L45.1996 2.89285L45.6148 2.7553L46.0352 2.63863L46.8729 2.40744C47.3521 2.29292 47.8374 2.17687 48.3323 2.07248L49.0857 1.94169C49.3389 1.89839 49.5933 1.84958 49.8536 1.82563C50.3711 1.76392 50.8224 1.63374 51.0657 1.60181C52.4163 1.52536 53.7644 1.54071 55.3468 1.66813C55.4696 1.67027 55.6606 1.68133 55.8823 1.6933C56.1039 1.70589 56.3574 1.71203 56.6032 1.73444C56.8913 1.79892 57.1988 1.86278 57.5216 1.92511C59.4904 2.22845 61.3941 2.77066 63.2053 3.49186L63.2031 3.48326L63.8968 3.75774L64.6047 4.08258C65.0903 4.29258 65.5661 4.56123 66.0576 4.81422C66.3043 4.93918 66.538 5.09177 66.7804 5.22993C67.0184 5.37546 67.2676 5.50442 67.4975 5.66346C67.9637 5.9711 68.4364 6.26553 68.8719 6.59436C69.5743 7.09769 70.255 7.63013 70.9122 8.19028C70.9264 8.20317 70.9413 8.21515 70.9555 8.22774L70.9685 8.2394L71.4189 8.64529L71.8498 9.07237L72.281 9.49975C72.4239 9.64313 72.5562 9.79664 72.6944 9.94463C72.6276 9.83717 72.6301 9.79388 72.6325 9.7512C72.4195 9.54856 72.1676 9.30877 71.9187 9.07267C72.3339 9.44786 72.6962 9.78712 72.9936 10.0641C73.1083 10.2096 73.2335 10.3527 73.3522 10.5089L73.7188 10.9897L74.1086 11.4899L74.4966 12.0278C75.1847 12.8991 75.7922 13.8313 76.369 14.7818C76.6361 15.2694 76.9307 15.7431 77.1684 16.2476L77.5434 16.9955L77.881 17.7621C77.978 17.9258 77.9403 17.7689 77.9524 17.7412C78.3311 18.6507 78.6355 19.5963 78.9113 20.5493C79.4384 22.2716 79.7913 24.0417 79.9648 25.8335C80.0344 26.2566 80.064 26.6846 80.1256 27.1086L80.0875 28.0064C80.0872 28.345 80.1052 28.6837 80.0906 29.0229L80.0511 30.0441C80.0461 30.2744 80.0127 30.5258 79.9932 30.7991C79.9673 31.0717 79.9537 31.3658 79.9141 31.6759L79.7867 32.656C79.7459 32.9995 79.6671 33.3526 79.6065 33.7216C79.3048 35.3422 78.8587 36.9329 78.2736 38.475C78.1987 38.7286 78.1415 38.9313 78.0905 39.0446C77.8967 39.5054 77.6899 39.9515 77.4902 40.3909C77.2667 40.8189 77.0618 41.2468 76.8327 41.6521C76.1243 42.9863 75.3022 44.2579 74.3754 45.4528C74.2715 45.5876 74.1748 45.7245 74.0703 45.851L73.7618 46.2213C73.5578 46.4605 73.3754 46.6996 73.1819 46.9072C72.7951 47.3223 72.4705 47.7073 72.166 47.9968C71.8173 48.3585 71.8486 48.3754 72.09 48.201C72.2594 48.0767 72.4252 47.9474 72.5871 47.8135L73.2431 47.2259C73.4829 47.018 73.7126 46.7835 73.934 46.5624C74.1528 46.3398 74.3717 46.1369 74.5405 45.9533C74.8808 45.5876 75.1043 45.3619 75.0567 45.4623C74.5074 46.4893 73.5071 47.7561 72.0449 49.1574C71.2989 49.8411 70.4596 50.5841 69.467 51.3004C68.9829 51.6753 68.4447 52.0182 67.896 52.3928C67.3291 52.7376 66.7498 53.1152 66.1164 53.4505C64.7302 54.2003 67.1566 52.9977 67.2221 52.9863C66.9881 53.1693 66.7427 53.3375 66.4873 53.4898C66.0304 53.7311 65.5775 53.9801 65.1043 54.1877C64.8276 54.3139 64.5559 54.4502 64.2761 54.5681L63.4325 54.9126L63.8789 54.7382C64.7914 54.378 65.6443 53.9537 66.4144 53.534C66.125 53.7078 65.8085 53.9089 65.4616 54.0904C65.0897 54.2813 64.7049 54.4901 64.3188 54.6765L63.1982 55.1941C67.207 53.7477 70.8909 51.3541 73.8072 48.2338C75.2673 46.6784 76.5693 44.9698 77.6309 43.1216C78.699 41.277 79.5583 39.3207 80.1929 37.2884C79.2179 40.3371 77.6979 43.1378 75.871 45.5059C79.1923 41.0519 81.1726 35.5911 81.435 29.9593C81.4347 30.2698 81.4038 30.5789 81.3831 30.8881C81.3574 31.1973 81.3451 31.5077 81.3086 31.8159C81.2292 32.4315 81.1723 33.0505 81.0529 33.6609C80.8601 34.889 80.5472 36.0959 80.1929 37.2884C80.8922 35.1327 81.3098 32.8598 81.4743 30.574C81.6455 28.2864 81.5027 25.9849 81.1475 23.7547C81.7578 26.7089 81.8589 30.0561 81.3389 33.364C81.7043 31.2304 81.797 29.0312 81.6567 26.8507C81.6252 26.0177 81.5262 25.1906 81.4449 24.4249C81.3284 23.6647 81.2403 22.9628 81.1274 22.3951C81.5741 24.4909 81.7503 26.2784 81.8363 27.9634C81.7537 24.2861 80.9868 20.5604 79.4807 17.0606C80.3027 18.9614 80.9775 21.0062 81.3896 23.1084C81.8038 25.2084 81.976 27.357 81.878 29.4239C81.8734 29.182 81.8836 28.9403 81.8694 28.6975L81.8363 27.9634C81.925 31.2946 81.4084 34.5964 80.3846 37.7013C79.8708 39.2536 79.2362 40.7621 78.468 42.1974C77.7014 43.6306 76.8163 44.998 75.8218 46.2858C76.9573 44.9686 78.1561 43.1068 79.1128 41.0617C80.0653 39.0123 80.7723 36.7959 81.2585 34.8601C80.5432 38.3362 79.1234 41.7663 77.0633 44.8295C75.0088 47.8952 72.3178 50.5906 69.2043 52.6593C66.0944 54.7345 62.566 56.1708 58.9451 56.8803C57.1472 57.2349 55.3197 57.4209 53.4868 57.4357C51.6873 57.4452 49.8907 57.2895 48.12 56.9706L49.0489 57.1459C49.3587 57.2042 49.6727 57.2365 49.9843 57.2825C50.6076 57.382 51.2379 57.4194 51.866 57.4769C53.1251 57.5472 54.391 57.5708 55.6529 57.4753C56.9169 57.4087 58.1729 57.2214 59.423 56.9927C60.0432 56.8527 60.6707 56.7382 61.2831 56.5585C61.5904 56.4732 61.9013 56.3986 62.2065 56.3037L63.1199 56.0096C62.6587 56.1514 62.1734 56.3393 61.655 56.4772L61.0055 56.6669C62.3685 56.306 63.7025 55.8446 64.9964 55.2865C65.5883 55.03 66.1709 54.753 66.7433 54.456C65.6709 55.021 64.5648 55.5205 63.4312 55.9519C61.2696 56.7531 59.0233 57.3074 56.7355 57.6043C56.3923 57.6583 56.0795 57.6752 55.7991 57.7044L55.0485 57.7781C54.6068 57.8127 54.2807 57.8284 54.0525 57.8533C53.5959 57.8984 53.531 57.9405 53.7128 57.9752C53.8942 58.0099 54.3221 58.0375 54.8482 58.0522C55.3728 58.0492 55.9951 58.0212 56.5611 57.9699C62.2482 57.3906 67.4697 55.1739 71.6541 51.8552C75.8413 48.536 79.0482 44.1268 80.8356 39.1238C80.9478 38.8333 81.0341 38.5337 81.1274 38.2365C81.218 37.9383 81.3182 37.6433 81.4001 37.3424C81.5519 36.7376 81.7315 36.1398 81.8477 35.5257L82.0391 34.6093L82.1896 33.6845L82.2641 33.2218L82.3173 32.756L82.423 31.8245C82.6388 29.3333 82.5535 26.8154 82.172 24.3445C81.968 22.9463 81.6094 21.2862 81.1472 19.8075L80.7917 18.7379C80.6681 18.398 80.5367 18.0774 80.4198 17.7759L80.2477 17.3415L80.0712 16.9513L79.7679 16.2991C78.7991 14.3468 77.5817 12.4847 76.1566 10.7527C74.7331 9.02017 73.0975 7.41596 71.2535 6.01899L70.5598 5.49613L69.8405 5.00243L69.48 4.75497L69.1081 4.52285L68.361 4.05986C67.3424 3.47528 66.299 2.91189 65.1992 2.44459C64.1107 1.95397 62.9716 1.55575 61.812 1.1996C61.2262 1.03995 60.6432 0.861875 60.0425 0.739372C59.7433 0.675203 59.4465 0.597219 59.1439 0.543489L58.2338 0.383529C56.0575 0.00312329 53.7938 -0.0874494 51.5322 0.0814149C49.2718 0.254885 47.0019 0.681037 44.8253 1.41667L44.0107 1.69699C43.7384 1.78817 43.4759 1.90638 43.2079 2.00985C42.9426 2.12007 42.6715 2.21647 42.4113 2.33806L41.6285 2.6982C41.3652 2.81364 41.1107 2.94627 40.8569 3.08045L40.0937 3.47866L39.3512 3.91218C39.1039 4.0571 38.8547 4.19863 38.6179 4.35982L37.8995 4.82896C37.6577 4.98155 37.4339 5.15993 37.2005 5.32388C36.9715 5.49398 36.7338 5.6524 36.5124 5.83171L35.8456 6.36501C35.6203 6.53848 35.4076 6.72669 35.1955 6.9152L34.5578 7.47706L33.9485 8.06624C33.7457 8.26243 33.5407 8.45647 33.3519 8.66525C31.7966 10.2919 30.4303 12.0665 29.3128 13.9443C28.2169 15.7863 27.3189 17.7377 26.6335 19.7661C25.2811 23.7329 24.8931 27.7558 25.0736 31.3895C25.0347 29.8936 25.0282 27.7485 25.3064 25.6312ZM68.9347 53.4005C69.8741 52.7974 70.7787 52.1425 71.6442 51.4389C70.7663 52.157 69.8643 52.8202 68.9347 53.4005ZM81.367 36.7345C81.2746 37.0111 81.1964 37.2844 81.0944 37.5453L80.7985 38.32L80.6545 38.7031L80.4959 39.0811C80.39 39.3358 80.2872 39.5917 80.1877 39.849C79.6153 41.2649 78.9346 42.6351 78.1514 43.9478C77.3721 45.2603 76.4688 46.4902 75.5037 47.6443C75.0271 48.2274 74.5077 48.7681 73.997 49.3087L73.1992 50.0834C72.9373 50.3437 72.6508 50.5758 72.3793 50.8215C72.1518 51.018 71.9225 51.2102 71.6915 51.3993C72.5492 50.6996 73.3643 49.95 74.1324 49.1543C73.021 50.2985 71.812 51.345 70.519 52.2823C70.1987 52.504 69.8893 52.7416 69.5567 52.9504L68.5529 53.5856L67.4926 54.184C67.1319 54.383 66.751 54.5598 66.3692 54.7535C66.6426 54.5935 66.9194 54.4392 67.1992 54.2905C67.5149 54.1165 67.8459 53.9108 68.1693 53.7225C68.4951 53.538 68.7913 53.3354 69.0373 53.1659C69.2834 52.9964 69.4763 52.8558 69.5768 52.7649C69.4333 52.8616 69.2874 52.9544 69.1421 53.0486C69.2984 52.9463 69.4537 52.8424 69.608 52.737C69.6015 52.7441 69.5879 52.7551 69.5768 52.7649C72.9562 50.4727 75.8351 47.4604 77.9922 44.0264C80.1589 40.5953 81.5689 36.725 82.1531 32.7889C82.0264 34.3676 81.7352 35.6283 81.367 36.7345ZM76.6985 12.7711C77.6288 14.1666 78.4329 15.6412 79.1014 17.1775C79.1787 17.3461 79.2516 17.5171 79.3237 17.6884C80.8579 21.42 81.5559 25.423 81.4536 29.3665C81.4795 28.0616 81.3924 26.7574 81.2468 25.4642C81.082 23.9739 80.7775 22.5014 80.3738 21.0611C79.5818 18.1729 78.2955 15.4355 76.6627 12.94C76.8126 13.1457 76.9706 13.3686 77.1341 13.605C77.3092 13.8497 77.4732 14.102 77.6256 14.3612L77.4284 14.0207L77.2154 13.6894L76.7894 13.0275C76.4994 12.5903 76.1851 12.169 75.8824 11.7404C75.5541 11.3308 75.2428 10.9078 74.9012 10.5089C74.6428 10.2163 74.3952 9.91392 74.1331 9.62501C75.058 10.5937 75.9263 11.633 76.6985 12.7711ZM54.9827 0.353747C55.4362 0.377695 55.8906 0.4216 56.345 0.455373C56.7172 0.486382 57.0876 0.541033 57.4542 0.582174C57.5642 0.58678 57.6805 0.594148 57.8264 0.610421C57.972 0.630377 58.146 0.667528 58.3732 0.719108C60.0639 0.999116 61.6064 1.42005 62.7014 1.8548C64.8029 2.64478 66.7581 3.62757 68.5316 4.76264C70.3057 5.89557 71.8977 7.18416 73.2446 8.59156C73.8653 9.26057 73.6842 9.11473 73.342 8.7899L73.8558 9.3315C73.6282 9.10614 73.4047 8.87771 73.1738 8.65727L72.4625 8.01558C72.6356 8.16602 73.0554 8.52617 73.342 8.7899C71.0578 6.47523 68.3878 4.55325 65.4978 3.13939C62.6056 1.72615 59.4911 0.853278 56.3778 0.504804C56.878 0.560069 57.1234 0.57235 57.3571 0.57849C57.0217 0.539498 56.6854 0.486075 56.345 0.455373C55.8878 0.425591 55.4315 0.385064 54.9777 0.362958L53.6299 0.331334C54.0763 0.331027 54.5286 0.343308 54.9827 0.353747Z" fill="url(#paint2_linear_152_48)"/>
<path d="M60.8731 56.7055L61.0047 56.6672C60.8669 56.704 60.7312 56.7445 60.5924 56.7795C60.6863 56.7562 60.7806 56.7335 60.8731 56.7055ZM74.6238 44.8731C75.933 43.1577 77.0898 41.108 77.8283 39.3423L77.8193 39.3441C75.9457 43.7414 72.9066 47.5294 69.1142 50.3185C69.7875 49.8537 70.4491 49.3722 71.0982 48.8745C71.9322 48.0087 73.3279 46.6007 74.6238 44.8731ZM35.9596 49.9989C38.1767 51.9675 40.8503 53.6807 43.8263 54.8348C44.9868 55.2686 46.1711 55.6487 47.3823 55.9165C47.9832 56.0706 48.5968 56.1658 49.2058 56.2791C49.5109 56.3328 49.8201 56.3626 50.1267 56.4056C50.434 56.4452 50.7407 56.49 51.0501 56.5078C49.6531 56.354 48.2664 56.1237 46.9164 55.7587C45.5674 55.3948 44.2449 54.945 42.9691 54.3927C41.6999 53.8315 40.4714 53.1838 39.2923 52.4541C38.1219 51.7148 37.0122 50.8892 35.9596 49.9989ZM63.326 53.5085L62.64 53.7759L61.9396 54.008C61.4759 54.1738 60.9976 54.2978 60.5206 54.4295C61.0001 54.3098 61.4824 54.198 61.9501 54.0445L62.6558 53.8302L63.3452 53.58C63.3186 53.5665 63.1615 53.5969 63.326 53.5085ZM55.2286 55.2548C54.87 55.2852 54.5096 55.2825 54.1485 55.2861C53.7875 55.2904 53.4258 55.2981 53.0638 55.2745L53.551 55.3199C53.7 55.3294 53.8341 55.3408 53.9513 55.3546C54.3782 55.3184 54.802 55.3083 55.2286 55.2548ZM40.9338 51.9525C41.3483 52.1941 41.7885 52.4069 42.2253 52.6414C42.3348 52.701 42.5332 52.7688 42.7821 52.8591C42.2501 52.6322 41.7403 52.351 41.2222 52.09C40.9656 51.9546 40.7186 51.8029 40.467 51.6617C40.216 51.5192 39.9659 51.3771 39.7285 51.2181L40.0181 51.4102L40.3202 51.5896L40.9338 51.9525Z" fill="url(#paint3_linear_152_48)"/>
<path d="M62.8752 16.2004C63.6691 15.9221 64.9766 15.2264 65.3035 13.7422C65.6771 11.9798 64.8365 10.7739 62.6884 10.4028C60.3068 9.98541 55.4502 10.8203 50.8738 12.9537C46.9511 14.809 42.8417 17.6381 42.0945 20.8384C41.3941 24.0386 42.9818 26.5431 47.6049 30.8101C48.9592 32.0624 50.1266 33.1755 51.1073 34.1959C56.1974 32.1551 65.9573 29.4187 67.078 29.1868C68.2922 28.9085 68.5257 29.4651 67.2648 29.697C66.1908 29.9289 56.9445 32.5725 51.7144 34.7988C55.3101 38.5556 56.5243 40.9674 56.0573 43.9357C55.4969 47.6461 50.8738 49.7332 46.0639 49.2694C41.4408 48.852 39.2926 46.1619 39.7129 43.7038C40.32 40.4572 44.5228 37.4888 49.0993 35.1235C49.3794 34.9379 49.7997 34.7988 50.1733 34.6133C49.2861 33.6857 48.1653 32.6189 46.9511 31.413C41.8143 26.5895 40.0398 24.085 40.787 20.6529C41.5342 17.2207 44.3827 14.6234 50.3134 12.0261C56.2908 9.38247 60.3535 9.10419 62.8752 9.52161C65.6304 9.98541 66.6578 11.7942 66.1908 13.9741C65.7238 15.9221 63.7158 16.8961 63.1554 16.9424C62.595 17.0352 62.3148 16.4323 62.8752 16.2004ZM54.9832 43.7038C55.3568 41.3848 54.5162 39.2513 50.7804 35.2162C50.3601 35.4017 50.0332 35.5873 49.7063 35.7728C43.9625 38.8802 41.1606 41.1993 40.6936 43.7038C40.32 45.8373 42.2813 47.9244 46.1106 48.2027C50.7804 48.4809 54.5162 46.3011 54.9832 43.7038Z" fill="url(#paint4_radial_152_48)"/>
<path d="M2.87392 71.9874C1.35749 71.9874 0.247139 71.2675 0.000396729 70.0422L1.0439 69.7971C1.20839 70.6395 1.94349 71.1245 2.90988 71.1245C3.68608 71.1245 4.43147 70.808 4.41604 69.94C4.40576 69.0823 3.47019 68.8475 2.47808 68.5769C1.35233 68.2706 0.226557 67.9183 0.226557 66.5909C0.226557 65.2481 1.34204 64.5742 2.66313 64.5742C3.94311 64.5742 5.09458 65.1103 5.3669 66.3509L4.3748 66.6011C4.19489 65.7995 3.52148 65.4422 2.7093 65.4422C1.97936 65.4422 1.25456 65.7587 1.25456 66.5807C1.25456 67.3261 2.06674 67.5456 2.98689 67.7907C4.14348 68.1021 5.46973 68.4595 5.46973 69.9094C5.46973 71.3696 4.23615 71.9874 2.87392 71.9874ZM11.3775 71.9874C9.87137 71.9874 8.70456 71.1041 8.70456 69.4755V64.6712H9.72751V69.3325C9.72751 70.5221 10.4472 71.0683 11.3776 71.0683C12.308 71.0683 13.0431 70.5169 13.0431 69.3325V64.6712H14.066V69.4755C14.066 71.1041 12.894 71.9874 11.3775 71.9874ZM21.3514 68.1123C22.2099 68.3268 22.7856 68.9139 22.7856 69.9197C22.7856 71.0786 21.994 71.8904 20.6883 71.8904H17.8303V64.6713H20.0613C21.4029 64.6713 22.2511 65.4474 22.2511 66.591C22.2511 67.2751 21.9375 67.8366 21.3514 68.1123ZM21.2948 66.6571C21.2948 66.0343 20.8425 65.5492 20.056 65.5492H18.8223V67.7957H20.2154C20.8733 67.7957 21.2948 67.2851 21.2948 66.6571ZM20.5137 70.9969C21.3413 70.9969 21.7885 70.4455 21.7885 69.8175C21.7885 69.1538 21.3208 68.6229 20.452 68.6229H18.8225V70.9969H20.5137ZM27.1616 70.9714H29.6444V71.8904H26.1387V64.6713H27.1617L27.1616 70.9714ZM32.7353 71.8904V64.6713H33.7582V71.8904H32.7353ZM45.4747 71.8904H44.4723L43.9943 66.0191L41.7479 71.8904H41.1259L38.8949 66.0394L38.4066 71.8904H37.399L37.9593 64.6713H39.3421L41.4343 70.129L43.5367 64.6713H44.9195L45.4747 71.8904ZM53.0636 65.5851H50.154V67.8315H52.7191V68.7403H50.154V70.9714H53.0636V71.8904H49.1104V64.6713H53.0636V65.5851ZM65.4395 64.6713H66.519L63.8461 71.8904H62.7768L60.1141 64.6713H61.1885L63.3166 70.6448L65.4395 64.6713ZM69.6097 71.8904V64.6713H70.6327V71.8904H69.6097ZM78.4219 64.6713V65.5852H76.5816V71.8904H75.5689V65.5852H73.7235V64.6713H78.4219ZM86.2111 71.8904L85.6045 70.2056H82.3556L81.7491 71.8904H80.685L83.3632 64.6713H84.5969L87.2752 71.8904H86.2111ZM82.6745 69.3172H85.2859L83.9802 65.6769L82.6745 69.3172ZM91.389 70.9714H93.8718V71.8904H90.3661V64.6713H91.3891L91.389 70.9714ZM96.9627 71.8904V64.6713H97.9856V71.8904H96.9627ZM105.775 64.6713V65.5852H103.934V71.8904H102.922V65.5852H101.076V64.6713H105.775ZM113.78 64.6713L111.39 68.4493V71.8904H110.357V68.4543L107.961 64.671H109.123L110.871 67.5352L112.623 64.671H113.78V64.6713Z" fill="url(#paint5_radial_152_48)"/>
<path d="M31.6649 79.1408H32.0868L31.0422 81.9623H30.6243L29.5836 79.1408H30.0035L30.8352 81.4754L31.6649 79.1408ZM33.1047 81.9623V79.1408H33.5045V81.9623H33.1047ZM36.6056 79.1408H37.0275L35.9828 81.9623H35.5649L34.5242 79.1408H34.9441L35.7759 81.4754L36.6056 79.1408ZM39.5903 79.498H38.4532V80.3759H39.4557V80.7311H38.4532V81.6031H39.5903V81.9622H38.0453V79.1407H39.5903V79.498ZM43.1768 82.0002C42.5842 82.0002 42.1503 81.7189 42.0538 81.24L42.4616 81.1442C42.5259 81.4734 42.8132 81.663 43.1909 81.663C43.4943 81.663 43.7856 81.5393 43.7795 81.2001C43.7755 80.8649 43.4099 80.7731 43.0221 80.6674C42.5822 80.5476 42.1422 80.4099 42.1422 79.8912C42.1422 79.3664 42.5782 79.103 43.0945 79.103C43.5947 79.103 44.0447 79.3125 44.1512 79.7974L43.7635 79.8952C43.6931 79.5819 43.43 79.4422 43.1125 79.4422C42.8273 79.4422 42.544 79.5659 42.544 79.8872C42.544 80.1785 42.8614 80.2643 43.221 80.3601C43.673 80.4818 44.1914 80.6215 44.1914 81.1881C44.1914 81.7588 43.7092 82.0002 43.1768 82.0002ZM47.1619 81.9623L46.9249 81.3038H45.6552L45.4181 81.9623H45.0023L46.0489 79.1408H46.5311L47.5778 81.9623H47.1619ZM45.7798 80.9566H46.8003L46.29 79.534L45.7798 80.9566ZM50.5102 79.1408H50.9079V81.9623H50.476L48.9914 79.7236V81.9623H48.5956V79.1408H49.0235L50.5102 81.3696L50.5102 79.1408ZM53.2337 82.0002C52.645 82.0002 52.189 81.655 52.189 81.0185V79.1409H52.5888V80.9626C52.5888 81.4275 52.87 81.641 53.2337 81.641C53.5973 81.641 53.8846 81.4255 53.8846 80.9626V79.1409H54.2844V81.0185C54.2844 81.655 53.8263 82.0002 53.2337 82.0002ZM56.4554 82.0002C55.8627 82.0002 55.4288 81.7189 55.3323 81.24L55.7402 81.1442C55.8044 81.4734 56.0917 81.663 56.4694 81.663C56.7728 81.663 57.0641 81.5393 57.058 81.2001C57.054 80.8649 56.6884 80.7731 56.3007 80.6674C55.8607 80.5476 55.4207 80.4099 55.4207 79.8912C55.4207 79.3664 55.8567 79.103 56.373 79.103C56.8732 79.103 57.3232 79.3125 57.4297 79.7974L57.042 79.8952C56.9717 79.5819 56.7085 79.4422 56.3911 79.4422C56.1058 79.4422 55.8225 79.5659 55.8225 79.8872C55.8225 80.1785 56.1399 80.2643 56.4995 80.3601C56.9516 80.4818 57.4699 80.6215 57.4699 81.1881C57.4699 81.7588 56.9877 82.0002 56.4554 82.0002ZM61.9062 79.1408H62.3281L61.2834 81.9623H60.8656L59.8249 79.1408H60.2448L61.0765 81.4754L61.9062 79.1408ZM63.346 81.9623V79.1408H63.7458V81.9623H63.346ZM66.8469 79.1408H67.2688L66.2241 81.9623H65.8062L64.7655 79.1408H65.1854L66.0172 81.4754L66.8469 79.1408ZM69.8316 79.498H68.6945V80.3759H69.697V80.7311H68.6945V81.6031H69.8316V81.9622H68.2866V79.1407H69.8316V79.498ZM74.0891 79.498H72.936V80.3739H73.9385V80.7311H72.936V81.9622H72.5281V79.1407H74.0891V79.498ZM76.6981 79.498H75.561V80.3759H76.5635V80.7311H75.561V81.6031H76.6981V81.9622H75.1532V79.1407H76.6981V79.498ZM78.2503 81.6031H79.2206V81.9623H77.8505V79.1408H78.2503V81.6031ZM80.2385 81.9623V79.1408H80.6383V81.9623H80.2385ZM81.652 81.9623L82.759 80.4898L81.7003 79.1409H82.1844L82.9981 80.2064L83.8077 79.1409H84.2939L83.2331 80.4898L84.3401 81.9623H83.8338L82.9981 80.799L82.1603 81.9623H81.652Z" fill="url(#paint6_radial_152_48)"/>
<defs>
<linearGradient id="paint0_linear_152_48" x1="25.2951" y1="31.3677" x2="63.9865" y2="31.3677" gradientUnits="userSpaceOnUse">
<stop stop-color="#905E26"/>
<stop offset="0.5" stop-color="#F5EC9B"/>
<stop offset="1" stop-color="#905E26"/>
</linearGradient>
<linearGradient id="paint1_linear_152_48" x1="39.3034" y1="23.2544" x2="80.0865" y2="23.2544" gradientUnits="userSpaceOnUse">
<stop stop-color="#905E26"/>
<stop offset="0.5" stop-color="#F5EC9B"/>
<stop offset="1" stop-color="#905E26"/>
</linearGradient>
<linearGradient id="paint2_linear_152_48" x1="25.0321" y1="0" x2="82.5392" y2="0" gradientUnits="userSpaceOnUse">
<stop stop-color="#905E26"/>
<stop offset="0.5" stop-color="#F5EC9B"/>
<stop offset="1" stop-color="#905E26"/>
</linearGradient>
<linearGradient id="paint3_linear_152_48" x1="35.9596" y1="39.3423" x2="77.8283" y2="39.3423" gradientUnits="userSpaceOnUse">
<stop stop-color="#905E26"/>
<stop offset="0.5" stop-color="#F5EC9B"/>
<stop offset="1" stop-color="#905E26"/>
</linearGradient>
<radialGradient id="paint4_radial_152_48" cx="0" cy="0" r="1" gradientUnits="userSpaceOnUse" gradientTransform="translate(53.8838 29.3488) scale(14.2225 19.9846)">
<stop stop-color="#F5EC9B"/>
<stop offset="1" stop-color="#905E26"/>
</radialGradient>
<radialGradient id="paint5_radial_152_48" cx="0" cy="0" r="1" gradientUnits="userSpaceOnUse" gradientTransform="translate(56.8902 68.2808) scale(56.8898 3.70657)">
<stop stop-color="#F5EC9B"/>
<stop offset="1" stop-color="#905E26"/>
</radialGradient>
<radialGradient id="paint6_radial_152_48" cx="0" cy="0" r="1" gradientUnits="userSpaceOnUse" gradientTransform="translate(56.9618 80.5516) scale(27.3782 1.4486)">
<stop stop-color="#F5EC9B"/>
<stop offset="1" stop-color="#905E26"/>
</radialGradient>
</defs>
</svg>
