<svg width="114" height="83" viewBox="0 0 114 83" fill="none" xmlns="http://www.w3.org/2000/svg">
<path d="M32.0902 47.653C32.6643 48.3219 33.2699 48.9635 33.9051 49.5755C36.0461 51.6685 38.5993 53.4277 41.3383 54.7582C42.3475 55.2275 43.2784 55.7138 44.369 56.1324C44.6415 56.2363 44.9199 56.3477 45.2126 56.4479C45.5077 56.5408 45.8136 56.6337 46.1335 56.7256C46.4515 56.8244 46.7906 56.8945 47.1452 56.9674C47.5001 57.0381 47.8686 57.119 48.2643 57.1593C46.3011 56.7483 44.3875 56.1307 42.5559 55.317C40.713 54.4913 38.9618 53.4768 37.3309 52.2901C34.0646 49.9136 31.2708 46.8623 29.2301 43.3743C29.1459 43.27 29.018 43.0713 28.8647 42.8182L28.6182 42.4036L28.3695 41.9266C28.2042 41.5957 28.0137 41.2598 27.8679 40.9344C27.7371 40.6498 27.6002 40.368 27.4572 40.0892C28.0914 41.6581 28.8235 43.0304 29.6432 44.3354C30.0207 44.9339 30.4204 45.5183 30.8413 46.0875C30.7818 46.0079 30.7199 45.9304 30.6607 45.8504C31.1118 46.4675 31.587 47.0667 32.0852 47.6469L32.0902 47.653ZM25.4875 32.6141L25.3379 31.4223C25.4172 32.1496 25.5091 32.9625 25.6773 33.7763L25.576 33.1984C25.5386 33.0049 25.5091 32.8099 25.4875 32.6141ZM51.6471 57.075C53.707 57.282 55.8673 57.2202 57.9832 56.8877C60.1004 56.5565 62.1711 55.9691 64.0963 55.2118C60.5506 56.5968 56.7876 57.2128 53.1063 57.1098C52.6136 57.1021 52.128 57.1098 51.6471 57.075Z" fill="black"/>
<path d="M39.4513 52.8898L39.3711 52.839C39.398 52.8559 39.4244 52.8732 39.4513 52.8898ZM42.4399 54.5251C44.1373 55.3094 45.9151 55.9092 47.7423 56.3138C44.7423 55.6341 41.919 54.4349 39.4513 52.8898C40.3989 53.4886 41.3951 54.0428 42.4399 54.5251ZM79.8863 32.9376C79.9166 32.4517 79.9779 31.9417 79.9934 31.6991C80.1774 30.1394 80.2318 28.8077 80.2241 27.4717C80.19 27.2309 80.0925 26.7797 80.0538 26.2667C80.0064 25.7524 79.9367 25.249 79.8779 24.7523C79.7884 24.2599 79.7113 23.7724 79.6135 23.2944C80.3179 26.8673 80.3062 30.4541 79.658 33.8381C79.7293 33.5368 79.8054 33.2365 79.8863 32.9376Z" fill="black"/>
<path d="M25.349 25.6756C25.6116 23.5534 26.1705 21.4848 26.7022 20.1066L26.487 21.1154C26.6199 20.8198 26.8345 20.1331 27.1271 19.4063L27.3383 18.8521L27.5715 18.3148C27.7263 17.9669 27.8564 17.6372 27.9936 17.3844C27.8997 17.6216 27.8093 17.8771 27.7003 18.1336C27.5935 18.3911 27.4736 18.6525 27.3594 18.9155L27.8282 17.867C27.3551 19.044 26.9479 20.246 26.6084 21.4676C26.2576 22.8061 25.9801 24.2128 25.8308 25.4757C25.7875 25.7906 25.7723 26.0982 25.7441 26.3916C25.7234 26.685 25.6875 26.9648 25.6847 27.2293C25.6717 27.758 25.6537 28.2209 25.6627 28.5912C25.6952 29.3321 25.7401 29.7015 25.8048 29.4951C25.9321 29.0851 25.9296 26.9768 26.3737 24.3383C26.6112 23.0232 26.9521 21.5807 27.4148 20.1675C27.874 18.7531 28.476 17.3817 29.0994 16.1717L28.916 16.5691L28.7473 16.9785L28.4017 17.8061L28.0846 18.6611L27.9233 19.0923C27.8759 19.2387 27.8279 19.3857 27.7805 19.5333C27.3717 20.7042 27.0661 21.9372 26.7998 23.18L26.6267 24.1187C26.5632 24.4306 26.5363 24.748 26.4892 25.062C26.3907 25.6897 26.3548 26.3221 26.3 26.947C26.2384 28.2 26.226 29.4376 26.3402 30.6211C26.3356 30.34 26.331 30.0902 26.335 29.8485L26.3706 29.1242C26.3855 28.8754 26.3827 28.6115 26.4062 28.3092C26.4279 28.0069 26.4477 27.6661 26.465 27.2629C26.5861 25.2305 26.9518 23.2185 27.5204 21.2713C28.0623 19.3159 28.7014 17.5939 29.6537 16.0336L29.9017 15.5643C30.0696 15.2494 30.2092 14.9387 30.3867 14.622C30.5889 14.2744 30.7824 14.0142 30.9391 13.7759C31.1004 13.54 31.2373 13.3327 31.394 13.1315L32.5342 11.5685C32.5574 11.5658 32.5274 11.6254 32.4723 11.714C32.6602 11.4479 32.8628 11.1923 33.0789 10.9482C33.3127 10.6791 33.5397 10.3937 33.732 10.1581C33.7772 10.1559 33.8212 10.1547 33.9249 10.0809C36.6035 7.25226 39.8999 4.94711 43.6147 3.49391L44.4405 3.17435L45.2766 2.89786L45.6925 2.76007L46.1137 2.6432L46.9529 2.41161C47.4328 2.29689 47.919 2.18064 48.4148 2.07607L49.1695 1.94505C49.4231 1.90168 49.6779 1.85278 49.9387 1.82879C50.457 1.76697 50.9092 1.63657 51.1529 1.60458C52.5058 1.528 53.8563 1.54338 55.4414 1.67101C55.5644 1.67317 55.7557 1.68424 55.9778 1.69623C56.1998 1.70884 56.4537 1.71499 56.6999 1.73745C56.9885 1.80203 57.2966 1.866 57.6199 1.92844C59.5922 2.23231 61.4991 2.77545 63.3135 3.4979L63.3113 3.48929L64.0062 3.76425L64.7153 4.08964C65.2018 4.30001 65.6784 4.56913 66.1707 4.82255C66.4179 4.94773 66.652 5.10059 66.8947 5.23899C67.1332 5.38477 67.3828 5.51394 67.6132 5.67326C68.0801 5.98143 68.5536 6.27638 68.9899 6.60577C69.6935 7.10997 70.3753 7.64334 71.0337 8.20446C71.048 8.21737 71.0629 8.22937 71.0771 8.24198L71.0901 8.25367L71.5413 8.66026L71.973 9.08807L72.4049 9.51619C72.548 9.65982 72.6805 9.8136 72.819 9.96184C72.7521 9.85419 72.7546 9.81083 72.757 9.76808C72.5437 9.56509 72.2913 9.32489 72.042 9.08838C72.4579 9.46421 72.8208 9.80406 73.1187 10.0815C73.2336 10.2273 73.359 10.3706 73.4779 10.5271L73.8452 11.0088L74.2357 11.5098L74.6243 12.0486C75.3136 12.9215 75.9221 13.8552 76.5 14.8074C76.7675 15.2958 77.0626 15.7704 77.3008 16.2757L77.6764 17.0249L78.0145 17.7929C78.1118 17.9568 78.074 17.7996 78.0861 17.772C78.4654 18.6829 78.7704 19.6302 79.0467 20.5849C79.5747 22.3101 79.9282 24.0833 80.102 25.8782C80.1717 26.3021 80.2014 26.7308 80.263 27.1555L80.2249 28.0548C80.2246 28.3941 80.2426 28.7333 80.228 29.0732L80.1884 30.0961C80.1835 30.3268 80.15 30.5786 80.1305 30.8524C80.1045 31.1255 80.0909 31.4201 80.0512 31.7308L79.9236 32.7125C79.8828 33.0566 79.8038 33.4103 79.7431 33.78C79.4409 35.4034 78.994 36.9968 78.4078 38.5416C78.3329 38.7957 78.2756 38.9986 78.2245 39.1121C78.0303 39.5738 77.8232 40.0207 77.6231 40.4608C77.3992 40.8895 77.1939 41.3182 76.9645 41.7242C76.2548 43.0607 75.4313 44.3345 74.5029 45.5315C74.3989 45.6665 74.302 45.8037 74.1973 45.9304L73.8882 46.3013C73.6839 46.5409 73.5012 46.7805 73.3073 46.9884C72.9199 47.4042 72.5948 47.7899 72.2897 48.0799C71.9404 48.4422 71.9717 48.4591 72.2136 48.2844C72.3833 48.1599 72.5494 48.0304 72.7115 47.8963L73.3686 47.3076C73.6089 47.0994 73.839 46.8644 74.0607 46.643C74.28 46.42 74.4992 46.2167 74.6683 46.0328C75.0092 45.6665 75.2331 45.4404 75.1854 45.541C74.6352 46.5698 73.6331 47.8388 72.1684 49.2425C71.4211 49.9274 70.5804 50.6717 69.5861 51.3892C69.1011 51.7647 68.562 52.1083 68.0123 52.4835C67.4444 52.8289 66.8641 53.2072 66.2296 53.543C64.841 54.2941 67.2716 53.0894 67.3373 53.078C67.1028 53.2614 66.857 53.4298 66.6012 53.5824C66.1435 53.8241 65.6898 54.0736 65.2157 54.2815C64.9386 54.4079 64.6664 54.5444 64.3861 54.6625L63.5411 55.0076L63.9882 54.8329C64.9024 54.4722 65.7567 54.0471 66.5281 53.6267C66.2383 53.8008 65.9212 54.0022 65.5737 54.184C65.2012 54.3753 64.8156 54.5844 64.4289 54.7711L63.3063 55.2897C67.3221 53.8408 71.0124 51.443 73.9338 48.3173C75.3963 46.7592 76.7006 45.0477 77.764 43.1962C78.834 41.3485 79.6948 39.3888 80.3305 37.3529C79.3539 40.407 77.8312 43.2125 76.0011 45.5847C79.3282 41.1229 81.3119 35.6527 81.5748 30.0112C81.5745 30.3221 81.5435 30.6319 81.5228 30.9416C81.4971 31.2513 81.4847 31.5622 81.4481 31.871C81.3685 32.4877 81.3116 33.1077 81.192 33.7191C80.9988 34.9493 80.6854 36.1584 80.3305 37.3529C81.031 35.1935 81.4494 32.9167 81.6141 30.6269C81.7857 28.3353 81.6426 26.0299 81.2868 23.7958C81.8981 26.7551 81.9993 30.1081 81.4785 33.4217C81.8445 31.2845 81.9374 29.0815 81.7968 26.8972C81.7652 26.0628 81.6661 25.2342 81.5847 24.4672C81.4679 23.7057 81.3797 23.0026 81.2667 22.4339C81.7141 24.5333 81.8906 26.3239 81.9767 28.0118C81.894 24.3282 81.1258 20.5959 79.6171 17.0901C80.4405 18.9942 81.1165 21.0425 81.5293 23.1484C81.9442 25.2521 82.1167 27.4043 82.0185 29.4748C82.0139 29.2325 82.0241 28.9904 82.0099 28.7471L81.9767 28.0118C82.0656 31.3488 81.5481 34.6562 80.5225 37.7666C80.0079 39.3216 79.3721 40.8326 78.6026 42.2704C77.8346 43.7061 76.948 45.0759 75.9519 46.3659C77.0893 45.0465 78.2902 43.1814 79.2486 41.1328C80.2027 39.0798 80.9109 36.8596 81.398 34.9204C80.6814 38.4026 79.2591 41.8386 77.1955 44.9071C75.1374 47.9781 72.4418 50.6781 69.3228 52.7505C66.2076 54.8292 62.6731 56.268 59.0459 56.9788C57.2449 57.334 55.4143 57.5203 53.5782 57.5351C51.7755 57.5447 49.9758 57.3887 48.2021 57.0692L49.1326 57.2448C49.4429 57.3032 49.7575 57.3355 50.0697 57.3817C50.6939 57.4813 51.3253 57.5188 51.9546 57.5763C53.2159 57.6468 54.4839 57.6705 55.748 57.5748C57.0142 57.5081 58.2724 57.3205 59.5247 57.0913C60.1459 56.9511 60.7745 56.8364 61.388 56.6564C61.6958 56.5709 62.0073 56.4962 62.3129 56.4012L63.228 56.1065C62.766 56.2486 62.2798 56.4368 61.7605 56.5749L61.1099 56.765C62.4752 56.4034 63.8115 55.9412 65.1077 55.3822C65.7006 55.1253 66.2842 54.8478 66.8576 54.5503C65.7833 55.1162 64.6754 55.6166 63.5398 56.0487C61.3745 56.8513 59.1242 57.4066 56.8325 57.704C56.4887 57.7581 56.1753 57.775 55.8945 57.8042L55.1426 57.8781C54.7001 57.9128 54.3734 57.9285 54.1449 57.9534C53.6875 57.9986 53.6225 58.0408 53.8045 58.0755C53.9863 58.1103 54.4149 58.1379 54.9419 58.1527C55.4674 58.1496 56.0908 58.1216 56.6578 58.0703C62.3547 57.4899 67.5853 55.2694 71.7769 51.945C75.9714 48.62 79.1838 44.2031 80.9743 39.1915C81.0867 38.9005 81.1731 38.6004 81.2667 38.3026C81.3574 38.004 81.4577 37.7084 81.5398 37.407C81.6918 36.8012 81.8717 36.2023 81.9882 35.5872L82.1799 34.6692L82.3307 33.7428L82.4053 33.2793L82.4586 32.8127L82.5645 31.8796C82.7806 29.3841 82.6952 26.8618 82.313 24.3866C82.1086 22.986 81.7494 21.323 81.2865 19.8418L80.9304 18.7703C80.8065 18.4298 80.6749 18.1087 80.5578 17.8067L80.3854 17.3715L80.2085 16.9806L79.9048 16.3274C78.9343 14.3716 77.7148 12.5063 76.2872 10.7713C74.8612 9.03578 73.2228 7.4288 71.3756 6.02941L70.6807 5.50564L69.9601 5.01109L69.5991 4.7632L69.2265 4.53068L68.4781 4.06689C67.4577 3.4813 66.4126 2.91693 65.3108 2.44883C64.2205 1.95735 63.0793 1.55845 61.9178 1.20168C61.331 1.04175 60.7469 0.863367 60.1453 0.740652C59.8455 0.676372 59.5482 0.598252 59.2451 0.54443L58.3334 0.384192C56.1534 0.0031287 53.8857 -0.0876008 51.6202 0.0815559C49.3559 0.255326 47.082 0.682216 44.9016 1.41912L44.0857 1.69992C43.8128 1.79127 43.5499 1.90968 43.2815 2.01332C43.0158 2.12374 42.7442 2.22031 42.4834 2.3421L41.6994 2.70287C41.4355 2.81851 41.1807 2.95137 40.9264 3.08578L40.1619 3.48468L39.4181 3.91895C39.1703 4.06412 38.9207 4.2059 38.6835 4.36737L37.9639 4.83732C37.7217 4.99017 37.4975 5.16886 37.2637 5.3331C37.0343 5.50349 36.7961 5.66219 36.5744 5.8418L35.9064 6.37603C35.6807 6.5498 35.4677 6.73833 35.2552 6.92717L34.6164 7.49L34.006 8.0802C33.8029 8.27673 33.5976 8.47111 33.4084 8.68025C31.8504 10.3097 30.4817 12.0874 29.3623 13.9684C28.2645 15.8137 27.365 17.7684 26.6784 19.8003C25.3236 23.7739 24.935 27.8039 25.1158 31.4438C25.0768 29.9454 25.0703 27.7965 25.349 25.6756ZM69.0528 53.4929C69.9938 52.8888 70.9 52.2328 71.767 51.5279C70.8876 52.2473 69.984 52.9116 69.0528 53.4929ZM81.5067 36.7981C81.4141 37.0752 81.3357 37.3489 81.2335 37.6103L80.9372 38.3863L80.7929 38.7701L80.634 39.1487C80.5279 39.4039 80.425 39.6603 80.3253 39.9179C79.7519 41.3363 79.07 42.7089 78.2855 44.0238C77.5048 45.3386 76.6 46.5707 75.6332 47.7268C75.1557 48.3109 74.6355 48.8525 74.1239 49.3941L73.3247 50.1701C73.0624 50.4309 72.7753 50.6634 72.5034 50.9094C72.2755 51.1063 72.0457 51.2988 71.8144 51.4882C72.6736 50.7874 73.49 50.0364 74.2595 49.2394C73.1462 50.3855 71.9351 51.4339 70.6398 52.3728C70.319 52.5948 70.0091 52.8329 69.6759 53.042L68.6704 53.6784L67.6082 54.2778C67.2468 54.4771 66.8653 54.6542 66.4829 54.8483C66.7568 54.688 67.034 54.5334 67.3143 54.3845C67.6305 54.2101 67.9622 54.0041 68.2861 53.8155C68.6125 53.6307 68.9091 53.4277 69.1556 53.2579C69.4021 53.0882 69.5953 52.9473 69.696 52.8563C69.5523 52.9531 69.4061 53.046 69.2606 53.1404C69.4172 53.0379 69.5727 52.9338 69.7273 52.8283C69.7208 52.8353 69.7071 52.8464 69.696 52.8563C73.0813 50.56 75.9652 47.5426 78.126 44.1026C80.2965 40.6656 81.7089 36.7885 82.2941 32.8457C82.1672 34.4271 81.8755 35.6899 81.5067 36.7981ZM76.8301 12.7932C77.762 14.1911 78.5675 15.6683 79.2371 17.2073C79.3145 17.3761 79.3876 17.5474 79.4598 17.7191C80.9966 21.4571 81.6959 25.467 81.5934 29.4173C81.6194 28.1102 81.532 26.8037 81.3862 25.5083C81.2211 24.0154 80.9161 22.5403 80.5117 21.0976C79.7183 18.2044 78.4298 15.4622 76.7942 12.9624C76.9443 13.1684 77.1026 13.3917 77.2664 13.6285C77.4418 13.8736 77.6061 14.1264 77.7588 14.3861L77.5612 14.045L77.3478 13.7131L76.9211 13.05C76.6306 12.6121 76.3157 12.1901 76.0126 11.7607C75.6837 11.3505 75.3719 10.9266 75.0297 10.5271C74.7708 10.234 74.5228 9.93108 74.2602 9.64167C75.1867 10.612 76.0565 11.6531 76.8301 12.7932ZM55.0766 0.354359C55.5309 0.378349 55.9861 0.42233 56.4413 0.456161C56.8142 0.487224 57.1852 0.541969 57.5524 0.583182C57.6627 0.587795 57.7791 0.595177 57.9253 0.611477C58.0711 0.631469 58.2455 0.668683 58.4731 0.720353C60.1666 1.00085 61.7119 1.42251 62.8087 1.85801C64.9138 2.64935 66.8724 3.63384 68.649 4.77088C70.4262 5.90577 72.021 7.19659 73.3702 8.60643C73.992 9.2766 73.8105 9.13051 73.4677 8.80512L73.9824 9.34765C73.7545 9.1219 73.5306 8.89308 73.2993 8.67225L72.5867 8.02946C72.7601 8.18016 73.1807 8.54092 73.4677 8.80512C71.1796 6.48644 68.505 4.56113 65.6099 3.14483C62.7127 1.72914 59.5928 0.854755 56.4742 0.505678C56.9752 0.561038 57.2211 0.57334 57.4552 0.579491C57.1192 0.540432 56.7823 0.486917 56.4413 0.456161C55.9833 0.426328 55.5263 0.38573 55.0717 0.363586L53.7215 0.331908C54.1687 0.3316 54.6217 0.343902 55.0766 0.354359Z" fill="black"/>
<path d="M60.9781 56.8027L61.11 56.7643C60.9719 56.8012 60.836 56.8418 60.6969 56.8768C60.7911 56.8535 60.8855 56.8307 60.9781 56.8027ZM74.7527 44.9498C76.0641 43.2314 77.2229 41.1782 77.9627 39.4094L77.9537 39.4113C76.0768 43.8161 73.0325 47.6108 69.2335 50.4046C69.908 49.939 70.5707 49.4567 71.2209 48.9582C72.0564 48.0909 73.4545 46.6804 74.7527 44.9498ZM36.0215 50.0844C38.2424 52.0565 40.9207 53.7727 43.9019 54.9288C45.0644 55.3634 46.2507 55.7441 47.464 56.0123C48.0659 56.1667 48.6806 56.262 49.2907 56.3755C49.5963 56.4293 49.906 56.4592 50.2132 56.5022C50.521 56.5419 50.8282 56.5868 51.1381 56.6047C49.7388 56.4506 48.3496 56.2199 46.9973 55.8542C45.6459 55.4898 44.3212 55.0392 43.0432 54.4859C41.7718 53.9238 40.5411 53.2749 39.36 52.544C38.1876 51.8034 37.0759 50.9764 36.0215 50.0844ZM63.4353 53.6001L62.7481 53.868L62.0464 54.1005C61.5819 54.2666 61.1029 54.3909 60.6251 54.5228C61.1054 54.4029 61.5884 54.2909 62.057 54.1371L62.7639 53.9224L63.4545 53.6718C63.4279 53.6583 63.2706 53.6887 63.4353 53.6001ZM55.3239 55.3495C54.9647 55.38 54.6036 55.3772 54.2419 55.3809C53.8802 55.3852 53.5179 55.3929 53.1553 55.3692L53.6433 55.4147C53.7926 55.4243 53.927 55.4356 54.0444 55.4495C54.472 55.4132 54.8966 55.403 55.3239 55.3495ZM41.0043 52.0414C41.4196 52.2835 41.8605 52.4966 42.2981 52.7316C42.4077 52.7913 42.6065 52.8592 42.8558 52.9496C42.3229 52.7224 41.8122 52.4406 41.2932 52.1792C41.0362 52.0436 40.7888 51.8916 40.5367 51.7502C40.2853 51.6075 40.0348 51.4651 39.7969 51.3057L40.0871 51.4983L40.3896 51.6779L41.0043 52.0414Z" fill="black"/>
<path d="M62.9826 16.2274C63.7778 15.9486 65.0877 15.2517 65.4151 13.765C65.7893 11.9995 64.9473 10.7915 62.7955 10.4198C60.4098 10.0017 55.5448 10.838 50.9604 12.9751C47.031 14.8336 42.9144 17.6676 42.166 20.8734C41.4643 24.0792 43.0548 26.588 47.6859 30.8624C49.0425 32.1168 50.2119 33.2319 51.1943 34.254C56.2932 32.2098 66.07 29.4686 67.1927 29.2363C68.409 28.9575 68.6429 29.5151 67.3798 29.7474C66.3039 29.9797 57.0417 32.6279 51.8024 34.858C55.4044 38.6213 56.6207 41.0372 56.1529 44.0107C55.5915 47.7275 50.9604 49.8183 46.1422 49.3537C41.5111 48.9355 39.3592 46.2408 39.7802 43.7784C40.3884 40.5262 44.5985 37.5527 49.1828 35.1832C49.4635 34.9974 49.8845 34.858 50.2587 34.6722C49.3699 33.743 48.2472 32.6744 47.031 31.4664C41.8853 26.6345 40.1077 24.1256 40.8562 20.6876C41.6046 17.2495 44.4581 14.6477 50.3991 12.0459C56.3868 9.39769 60.4565 9.11892 62.9826 9.53707C65.7426 10.0017 66.7717 11.8136 66.3039 13.9973C65.8361 15.9486 63.8246 16.9243 63.2633 16.9707C62.7019 17.0637 62.4213 16.4597 62.9826 16.2274ZM55.077 43.7784C55.4512 41.4554 54.6092 39.3182 50.8669 35.2761C50.4458 35.462 50.1184 35.6478 49.7909 35.8337C44.0371 38.9465 41.2304 41.2695 40.7626 43.7784C40.3884 45.9156 42.3531 48.0063 46.189 48.2851C50.8669 48.5638 54.6092 46.3802 55.077 43.7784Z" fill="black"/>
<path d="M2.8785 72.112C1.35944 72.112 0.247169 71.3909 0 70.1635L1.04531 69.918C1.21009 70.7618 1.94646 71.2477 2.91452 71.2477C3.69206 71.2477 4.43874 70.9306 4.42329 70.0612C4.41299 69.2019 3.47579 68.9667 2.48198 68.6956C1.35428 68.3888 0.226552 68.0359 0.226552 66.7062C0.226552 65.3611 1.34397 64.686 2.66735 64.686C3.94954 64.686 5.103 65.223 5.3758 66.4658L4.38198 66.7164C4.20175 65.9135 3.52718 65.5555 2.71359 65.5555C1.98239 65.5555 1.25633 65.8725 1.25633 66.696C1.25633 67.4427 2.06992 67.6626 2.99166 67.9081C4.15026 68.22 5.4788 68.578 5.4788 70.0305C5.4788 71.4932 4.24309 72.112 2.8785 72.112ZM11.3968 72.112C9.88806 72.112 8.71923 71.2272 8.71923 69.5958V64.7832H9.74395V69.4525C9.74395 70.6442 10.4649 71.1914 11.3969 71.1914C12.3289 71.1914 13.0653 70.639 13.0653 69.4525V64.7832H14.09V69.5958C14.09 71.2272 12.9159 72.112 11.3968 72.112ZM21.388 68.2303C22.2479 68.4451 22.8247 69.0332 22.8247 70.0408C22.8247 71.2017 22.0317 72.0149 20.7237 72.0149H17.8608V64.7833H20.0956C21.4396 64.7833 22.2892 65.5607 22.2892 66.7063C22.2892 67.3916 21.975 67.9541 21.388 68.2303ZM21.3313 66.7726C21.3313 66.1486 20.8782 65.6627 20.0903 65.6627H18.8545V67.9131H20.25C20.9091 67.9131 21.3313 67.4016 21.3313 66.7726ZM20.5488 71.1198C21.3778 71.1198 21.8259 70.5675 21.8259 69.9384C21.8259 69.2736 21.3573 68.7417 20.487 68.7417H18.8547V71.1198H20.5488ZM27.2082 71.0943H29.6954V72.0148H26.1836V64.7833H27.2083L27.2082 71.0943ZM32.7915 72.0148V64.7833H33.8163V72.0148H32.7915ZM45.553 72.0148H44.5489L44.07 66.1334L41.8197 72.0148H41.1967L38.9618 66.1538L38.4726 72.0148H37.4634L38.0247 64.7833H39.4098L41.5056 70.2505L43.6117 64.7833H44.9969L45.553 72.0148ZM53.155 65.6987H50.2404V67.949H52.8099V68.8594H50.2404V71.0943H53.155V72.0149H49.195V64.7833H53.155V65.6987ZM65.5524 64.7833H66.6338L63.9562 72.0148H62.8851L60.2178 64.7833H61.294L63.4258 70.7671L65.5524 64.7833ZM69.7299 72.0148V64.7833H70.7546V72.0148H69.7299ZM78.5572 64.7833V65.6987H76.7137V72.0149H75.6993V65.6987H73.8507V64.7833H78.5572ZM86.3599 72.0148L85.7523 70.3271H82.4978L81.8902 72.0148H80.8243L83.5071 64.7833H84.743L87.4258 72.0148H86.3599ZM82.8172 69.4372H85.4331L84.1252 65.7907L82.8172 69.4372ZM91.5468 71.0943H94.0339V72.0148H90.5221V64.7833H91.5469L91.5468 71.0943ZM97.1301 72.0148V64.7833H98.1548V72.0148H97.1301ZM105.957 64.7833V65.6987H104.114V72.0149H103.1V65.6987H101.251V64.7833H105.957ZM113.977 64.7833L111.582 68.5678V72.0148H110.547V68.5728L108.148 64.783H109.311L111.062 67.6521L112.818 64.783H113.977V64.7833Z" fill="black"/>
<path d="M31.7177 79.2781H32.1404L31.0939 82.1045H30.6753L29.6328 79.2781H30.0534L30.8866 81.6167L31.7177 79.2781ZM33.16 82.1045V79.2781H33.5605V82.1045H33.16ZM36.6669 79.2781H37.0896L36.0431 82.1045H35.6245L34.582 79.2781H35.0026L35.8358 81.6167L36.6669 79.2781ZM39.6568 79.6359H38.5177V80.5153H39.522V80.8711H38.5177V81.7446H39.6568V82.1044H38.1092V79.278H39.6568V79.6359ZM43.2496 82.1424C42.6559 82.1424 42.2212 81.8606 42.1246 81.3809L42.5331 81.285C42.5975 81.6147 42.8853 81.8046 43.2637 81.8046C43.5675 81.8046 43.8594 81.6807 43.8533 81.3409C43.8493 81.0051 43.483 80.9132 43.0946 80.8073C42.6539 80.6873 42.2132 80.5494 42.2132 80.0297C42.2132 79.5041 42.6499 79.2402 43.1671 79.2402C43.6682 79.2402 44.119 79.4501 44.2256 79.9358L43.8372 80.0337C43.7668 79.7199 43.5031 79.58 43.1852 79.58C42.8994 79.58 42.6156 79.7039 42.6156 80.0257C42.6156 80.3176 42.9336 80.4035 43.2938 80.4995C43.7466 80.6214 44.2659 80.7613 44.2659 81.3289C44.2659 81.9006 43.7829 82.1424 43.2496 82.1424ZM47.2416 82.1045L47.0041 81.4448H45.7322L45.4947 82.1045H45.0782L46.1267 79.2781H46.6097L47.6582 82.1045H47.2416ZM45.857 81.0971H46.8793L46.3682 79.6719L45.857 81.0971ZM50.5956 79.2781H50.9941V82.1045H50.5614L49.0742 79.8618V82.1045H48.6777V79.2781H49.1064L50.5956 81.5107L50.5956 79.2781ZM53.3238 82.1424C52.7342 82.1424 52.2773 81.7966 52.2773 81.159V79.2782H52.6778V81.1031C52.6778 81.5688 52.9596 81.7826 53.3238 81.7826C53.6881 81.7826 53.9759 81.5668 53.9759 81.1031V79.2782H54.3764V81.159C54.3764 81.7966 53.9175 82.1424 53.3238 82.1424ZM56.5511 82.1424C55.9574 82.1424 55.5227 81.8606 55.4261 81.3809L55.8346 81.285C55.899 81.6147 56.1868 81.8046 56.5652 81.8046C56.869 81.8046 57.1608 81.6807 57.1548 81.3409C57.1508 81.0051 56.7845 80.9132 56.3961 80.8073C55.9554 80.6873 55.5147 80.5494 55.5147 80.0297C55.5147 79.5041 55.9514 79.2402 56.4686 79.2402C56.9697 79.2402 57.4205 79.4501 57.5271 79.9358L57.1387 80.0337C57.0683 79.7199 56.8046 79.58 56.4867 79.58C56.2009 79.58 55.9171 79.7039 55.9171 80.0257C55.9171 80.3176 56.2351 80.4035 56.5953 80.4995C57.0481 80.6214 57.5674 80.7613 57.5674 81.3289C57.5674 81.9006 57.0844 82.1424 56.5511 82.1424ZM62.0114 79.2781H62.434L61.3875 82.1045H60.9689L59.9265 79.2781H60.3471L61.1802 81.6167L62.0114 79.2781ZM63.4536 82.1045V79.2781H63.8541V82.1045H63.4536ZM66.9606 79.2781H67.3832L66.3367 82.1045H65.9181L64.8756 79.2781H65.2963L66.1294 81.6167L66.9606 79.2781ZM69.9504 79.6359H68.8114V80.5153H69.8156V80.8711H68.8114V81.7446H69.9504V82.1044H68.4028V79.278H69.9504V79.6359ZM74.2154 79.6359H73.0602V80.5133H74.0644V80.8711H73.0602V82.1044H72.6517V79.278H74.2154V79.6359ZM76.8289 79.6359H75.6898V80.5153H76.694V80.8711H75.6898V81.7446H76.8289V82.1044H75.2812V79.278H76.8289V79.6359ZM78.3837 81.7447H79.3558V82.1045H77.9833V79.2781H78.3837V81.7447ZM80.3753 82.1045V79.2781H80.7758V82.1045H80.3753ZM81.7914 82.1045L82.9003 80.6294L81.8397 79.2782H82.3247L83.1397 80.3455L83.9508 79.2782H84.4378L83.3752 80.6294L84.4841 82.1045H83.9769L83.1397 80.9392L82.3005 82.1045H81.7914Z" fill="black"/>
</svg>
