<svg width="114" height="83" viewBox="0 0 114 83" fill="none" xmlns="http://www.w3.org/2000/svg">
<path d="M32.0904 47.653C32.6645 48.3219 33.2702 48.9635 33.9054 49.5755C36.0464 51.6685 38.5996 53.4277 41.3386 54.7582C42.3478 55.2275 43.2786 55.7138 44.3693 56.1324C44.6418 56.2363 44.9202 56.3477 45.2128 56.4479C45.5079 56.5408 45.8139 56.6337 46.1338 56.7256C46.4518 56.8244 46.7909 56.8945 47.1454 56.9674C47.5003 57.0381 47.8688 57.119 48.2646 57.1593C46.3013 56.7483 44.3877 56.1307 42.5562 55.317C40.7132 54.4913 38.9621 53.4768 37.3312 52.2901C34.0648 49.9136 31.271 46.8623 29.2303 43.3743C29.1461 43.27 29.0182 43.0713 28.8649 42.8182L28.6184 42.4036L28.3698 41.9266C28.2044 41.5957 28.014 41.2598 27.8681 40.9344C27.7373 40.6498 27.6004 40.368 27.4575 40.0892C28.0917 41.6581 28.8237 43.0304 29.6434 44.3354C30.021 44.9339 30.4206 45.5183 30.8415 46.0875C30.7821 46.0079 30.7201 45.9304 30.661 45.8504C31.112 46.4675 31.5872 47.0667 32.0855 47.6469L32.0904 47.653ZM25.4877 32.6141L25.3381 31.4223C25.4174 32.1496 25.5094 32.9625 25.6775 33.7763L25.5763 33.1984C25.5389 33.0049 25.5093 32.8099 25.4877 32.6141ZM51.6474 57.075C53.7073 57.282 55.8675 57.2202 57.9834 56.8877C60.1006 56.5565 62.1714 55.9691 64.0966 55.2118C60.5509 56.5968 56.7878 57.2128 53.1065 57.1098C52.6138 57.1021 52.1283 57.1098 51.6474 57.075Z" fill="white"/>
<path d="M39.4506 52.8898L39.3704 52.839C39.3973 52.8559 39.4236 52.8732 39.4506 52.8898ZM42.4392 54.5251C44.1365 55.3094 45.9143 55.9092 47.7416 56.3138C44.7415 55.6341 41.9183 54.4349 39.4506 52.8898C40.3981 53.4886 41.3943 54.0428 42.4392 54.5251ZM79.8855 32.9376C79.9159 32.4517 79.9772 31.9417 79.9927 31.6991C80.1766 30.1394 80.2311 28.8077 80.2234 27.4717C80.1893 27.2309 80.0918 26.7797 80.0531 26.2667C80.0057 25.7524 79.936 25.249 79.8772 24.7523C79.7877 24.2599 79.7106 23.7724 79.6127 23.2944C80.3172 26.8673 80.3054 30.4541 79.6573 33.8381C79.7286 33.5368 79.8047 33.2365 79.8855 32.9376Z" fill="white"/>
<path d="M25.3492 25.6756C25.6118 23.5534 26.1708 21.4848 26.7025 20.1066L26.4873 21.1154C26.6201 20.8198 26.8347 20.1331 27.1273 19.4063L27.3385 18.8521L27.5717 18.3148C27.7266 17.9669 27.8566 17.6372 27.9938 17.3844C27.9 17.6216 27.8095 17.8771 27.7005 18.1336C27.5937 18.3911 27.4739 18.6525 27.3596 18.9155L27.8284 17.867C27.3554 19.044 26.9482 20.246 26.6087 21.4676C26.2578 22.8061 25.9803 24.2128 25.8311 25.4757C25.7877 25.7906 25.7726 26.0982 25.7444 26.3916C25.7236 26.685 25.6877 26.9648 25.6849 27.2293C25.6719 27.758 25.654 28.2209 25.6629 28.5912C25.6955 29.3321 25.7404 29.7015 25.8051 29.4951C25.9323 29.0851 25.9299 26.9768 26.3739 24.3383C26.6114 23.0232 26.9524 21.5807 27.415 20.1675C27.8743 18.7531 28.4763 17.3817 29.0996 16.1717L28.9163 16.5691L28.7475 16.9785L28.4019 17.8061L28.0848 18.6611L27.9235 19.0923C27.8761 19.2387 27.8281 19.3857 27.7807 19.5333C27.372 20.7042 27.0663 21.9372 26.8 23.18L26.6269 24.1187C26.5634 24.4306 26.5365 24.748 26.4894 25.062C26.391 25.6897 26.355 26.3221 26.3002 26.947C26.2386 28.2 26.2262 29.4376 26.3405 30.6211C26.3358 30.34 26.3312 30.0902 26.3352 29.8485L26.3708 29.1242C26.3857 28.8754 26.3829 28.6115 26.4064 28.3092C26.4281 28.0069 26.4479 27.6661 26.4653 27.2629C26.5864 25.2305 26.9521 23.2185 27.5206 21.2713C28.0625 19.3159 28.7017 17.5939 29.6539 16.0336L29.902 15.5643C30.0698 15.2494 30.2095 14.9387 30.3869 14.622C30.5891 14.2744 30.7826 14.0142 30.9393 13.7759C31.1007 13.54 31.2375 13.3327 31.3942 13.1315L32.5344 11.5685C32.5577 11.5658 32.5276 11.6254 32.4725 11.714C32.6605 11.4479 32.863 11.1923 33.0791 10.9482C33.3129 10.6791 33.5399 10.3937 33.7322 10.1581C33.7774 10.1559 33.8214 10.1547 33.9251 10.0809C36.6038 7.25226 39.9001 4.94711 43.6149 3.49391L44.4408 3.17435L45.2769 2.89786L45.6928 2.76007L46.1139 2.6432L46.9531 2.41161C47.4331 2.29689 47.9193 2.18064 48.415 2.07607L49.1697 1.94505C49.4233 1.90168 49.6782 1.85278 49.9389 1.82879C50.4573 1.76697 50.9094 1.63657 51.1531 1.60458C52.506 1.528 53.8565 1.54338 55.4417 1.67101C55.5646 1.67317 55.756 1.68424 55.978 1.69623C56.2 1.70884 56.454 1.71499 56.7002 1.73745C56.9888 1.80203 57.2969 1.866 57.6202 1.92844C59.5924 2.23231 61.4994 2.77545 63.3137 3.4979L63.3115 3.48929L64.0064 3.76425L64.7156 4.08964C65.202 4.30001 65.6786 4.56913 66.171 4.82255C66.4181 4.94773 66.6522 5.10059 66.895 5.23899C67.1334 5.38477 67.383 5.51394 67.6134 5.67326C68.0804 5.98143 68.5539 6.27638 68.9902 6.60577C69.6937 7.10997 70.3756 7.64334 71.034 8.20446C71.0482 8.21737 71.0631 8.22937 71.0773 8.24198L71.0904 8.25367L71.5415 8.66026L71.9732 9.08807L72.4052 9.51619C72.5483 9.65982 72.6808 9.8136 72.8192 9.96184C72.7523 9.85419 72.7548 9.81083 72.7573 9.76808C72.5439 9.56509 72.2915 9.32489 72.0423 9.08838C72.4581 9.46421 72.8211 9.80406 73.119 10.0815C73.2339 10.2273 73.3593 10.3706 73.4782 10.5271L73.8454 11.0088L74.2359 11.5098L74.6246 12.0486C75.3139 12.9215 75.9224 13.8552 76.5002 14.8074C76.7678 15.2958 77.0629 15.7704 77.301 16.2757L77.6766 17.0249L78.0148 17.7929C78.112 17.9568 78.0742 17.7996 78.0863 17.772C78.4657 18.6829 78.7707 19.6302 79.0469 20.5849C79.5749 22.3101 79.9285 24.0833 80.1023 25.8782C80.1719 26.3021 80.2017 26.7308 80.2633 27.1555L80.2252 28.0548C80.2249 28.3941 80.2428 28.7333 80.2283 29.0732L80.1887 30.0961C80.1837 30.3268 80.1503 30.5786 80.1307 30.8524C80.1047 31.1255 80.0911 31.4201 80.0515 31.7308L79.9239 32.7125C79.883 33.0566 79.804 33.4103 79.7434 33.78C79.4411 35.4034 78.9943 36.9968 78.4081 38.5416C78.3331 38.7957 78.2758 38.9986 78.2247 39.1121C78.0306 39.5738 77.8234 40.0207 77.6234 40.4608C77.3995 40.8895 77.1942 41.3182 76.9647 41.7242C76.2551 43.0607 75.4316 44.3345 74.5032 45.5315C74.3991 45.6665 74.3022 45.8037 74.1975 45.9304L73.8885 46.3013C73.6841 46.5409 73.5014 46.7805 73.3076 46.9884C72.9202 47.4042 72.595 47.7899 72.29 48.0799C71.9407 48.4422 71.972 48.4591 72.2138 48.2844C72.3836 48.1599 72.5496 48.0304 72.7118 47.8963L73.3689 47.3076C73.6092 47.0994 73.8393 46.8644 74.061 46.643C74.2802 46.42 74.4995 46.2167 74.6685 46.0328C75.0095 45.6665 75.2334 45.4404 75.1857 45.541C74.6354 46.5698 73.6333 47.8388 72.1686 49.2425C71.4214 49.9274 70.5806 50.6717 69.5863 51.3892C69.1014 51.7647 68.5622 52.1083 68.0126 52.4835C67.4446 52.8289 66.8643 53.2072 66.2298 53.543C64.8413 54.2941 67.2719 53.0894 67.3375 53.078C67.1031 53.2614 66.8572 53.4298 66.6014 53.5824C66.1437 53.8241 65.6901 54.0736 65.216 54.2815C64.9388 54.4079 64.6666 54.5444 64.3864 54.6625L63.5413 55.0076L63.9885 54.8329C64.9026 54.4722 65.757 54.0471 66.5283 53.6267C66.2385 53.8008 65.9214 54.0022 65.574 54.184C65.2014 54.3753 64.8159 54.5844 64.4291 54.7711L63.3066 55.2897C67.3223 53.8408 71.0126 51.443 73.934 48.3173C75.3966 46.7592 76.7009 45.0477 77.7643 43.1962C78.8343 41.3485 79.695 39.3888 80.3308 37.3529C79.3541 40.407 77.8315 43.2125 76.0013 45.5847C79.3284 41.1229 81.3121 35.6527 81.575 30.0112C81.5747 30.3221 81.5437 30.6319 81.523 30.9416C81.4973 31.2513 81.4849 31.5622 81.4484 31.871C81.3688 32.4877 81.3118 33.1077 81.1923 33.7191C80.999 34.9493 80.6857 36.1584 80.3308 37.3529C81.0313 35.1935 81.4496 32.9167 81.6143 30.6269C81.7859 28.3353 81.6428 26.0299 81.287 23.7958C81.8983 26.7551 81.9996 30.1081 81.4787 33.4217C81.8447 31.2845 81.9376 29.0815 81.7971 26.8972C81.7655 26.0628 81.6664 25.2342 81.5849 24.4672C81.4682 23.7057 81.3799 23.0026 81.2669 22.4339C81.7144 24.5333 81.8909 26.3239 81.977 28.0118C81.8943 24.3282 81.126 20.5959 79.6173 17.0901C80.4407 18.9942 81.1167 21.0425 81.5295 23.1484C81.9445 25.2521 82.1169 27.4043 82.0188 29.4748C82.0141 29.2325 82.0243 28.9904 82.0101 28.7471L81.977 28.0118C82.0658 31.3488 81.5484 34.6562 80.5228 37.7666C80.0081 39.3216 79.3724 40.8326 78.6028 42.2704C77.8349 43.7061 76.9483 45.0759 75.9521 46.3659C77.0895 45.0465 78.2904 43.1814 79.2488 41.1328C80.2029 39.0798 80.9111 36.8596 81.3982 34.9204C80.6816 38.4026 79.2593 41.8386 77.1957 44.9071C75.1377 47.9781 72.442 50.6781 69.3231 52.7505C66.2078 54.8292 62.6733 56.268 59.0462 56.9788C57.2452 57.334 55.4145 57.5203 53.5784 57.5351C51.7757 57.5447 49.9761 57.3887 48.2023 57.0692L49.1328 57.2448C49.4431 57.3032 49.7578 57.3355 50.0699 57.3817C50.6942 57.4813 51.3256 57.5188 51.9548 57.5763C53.2161 57.6468 54.4842 57.6705 55.7482 57.5748C57.0145 57.5081 58.2726 57.3205 59.5249 57.0913C60.1461 56.9511 60.7747 56.8364 61.3882 56.6564C61.696 56.5709 62.0075 56.4962 62.3132 56.4012L63.2282 56.1065C62.7662 56.2486 62.28 56.4368 61.7607 56.5749L61.1101 56.765C62.4755 56.4034 63.8118 55.9412 65.1079 55.3822C65.7008 55.1253 66.2845 54.8478 66.8578 54.5503C65.7836 55.1162 64.6756 55.6166 63.5401 56.0487C61.3747 56.8513 59.1245 57.4066 56.8327 57.704C56.489 57.7581 56.1756 57.775 55.8947 57.8042L55.1428 57.8781C54.7003 57.9128 54.3736 57.9285 54.1451 57.9534C53.6877 57.9986 53.6227 58.0408 53.8048 58.0755C53.9866 58.1103 54.4151 58.1379 54.9422 58.1527C55.4677 58.1496 56.091 58.1216 56.658 58.0703C62.355 57.4899 67.5855 55.2694 71.7772 51.945C75.9716 48.62 79.1841 44.2031 80.9746 39.1915C81.087 38.9005 81.1734 38.6004 81.2669 38.3026C81.3576 38.004 81.458 37.7084 81.54 37.407C81.6921 36.8012 81.872 36.2023 81.9884 35.5872L82.1801 34.6692L82.3309 33.7428L82.4056 33.2793L82.4588 32.8127L82.5647 31.8796C82.7809 29.3841 82.6954 26.8618 82.3133 24.3866C82.1089 22.986 81.7497 21.323 81.2867 19.8418L80.9306 18.7703C80.8067 18.4298 80.6751 18.1087 80.5581 17.8067L80.3856 17.3715L80.2088 16.9806L79.905 16.3274C78.9345 14.3716 77.715 12.5063 76.2875 10.7713C74.8615 9.03578 73.223 7.4288 71.3759 6.02941L70.681 5.50564L69.9604 5.01109L69.5993 4.7632L69.2268 4.53068L68.4783 4.06689C67.458 3.4813 66.4128 2.91693 65.311 2.44883C64.2207 1.95735 63.0796 1.55845 61.918 1.20168C61.3312 1.04175 60.7472 0.863367 60.1455 0.740652C59.8457 0.676372 59.5485 0.598252 59.2453 0.54443L58.3336 0.384192C56.1536 0.0031287 53.8859 -0.0876008 51.6204 0.0815559C49.3561 0.255326 47.0822 0.682216 44.9019 1.41912L44.0859 1.69992C43.8131 1.79127 43.5502 1.90968 43.2817 2.01332C43.016 2.12374 42.7444 2.22031 42.4837 2.3421L41.6996 2.70287C41.4358 2.81851 41.1809 2.95137 40.9267 3.08578L40.1621 3.48468L39.4183 3.91895C39.1706 4.06412 38.921 4.2059 38.6838 4.36737L37.9641 4.83732C37.722 4.99017 37.4978 5.16886 37.264 5.3331C37.0345 5.50349 36.7964 5.66219 36.5746 5.8418L35.9067 6.37603C35.6809 6.5498 35.4679 6.73833 35.2555 6.92717L34.6166 7.49L34.0063 8.0802C33.8031 8.27673 33.5978 8.47111 33.4086 8.68025C31.8507 10.3097 30.482 12.0874 29.3625 13.9684C28.2648 15.8137 27.3652 17.7684 26.6786 19.8003C25.3239 23.7739 24.9352 27.8039 25.1161 31.4438C25.077 29.9454 25.0705 27.7965 25.3492 25.6756ZM69.0531 53.4929C69.9941 52.8888 70.9002 52.2328 71.7673 51.5279C70.8878 52.2473 69.9842 52.9116 69.0531 53.4929ZM81.5069 36.7981C81.4143 37.0752 81.336 37.3489 81.2338 37.6103L80.9374 38.3863L80.7931 38.7701L80.6343 39.1487C80.5281 39.4039 80.4252 39.6603 80.3255 39.9179C79.7522 41.3363 79.0702 42.7089 78.2858 44.0238C77.5051 45.3386 76.6002 46.5707 75.6335 47.7268C75.156 48.3109 74.6357 48.8525 74.1241 49.3941L73.3249 50.1701C73.0626 50.4309 72.7756 50.6634 72.5037 50.9094C72.2757 51.1063 72.046 51.2988 71.8147 51.4882C72.6738 50.7874 73.4903 50.0364 74.2598 49.2394C73.1464 50.3855 71.9354 51.4339 70.6401 52.3728C70.3193 52.5948 70.0093 52.8329 69.6761 53.042L68.6706 53.6784L67.6085 54.2778C67.2471 54.4771 66.8656 54.6542 66.4831 54.8483C66.757 54.688 67.0342 54.5334 67.3146 54.3845C67.6308 54.2101 67.9624 54.0041 68.2863 53.8155C68.6127 53.6307 68.9094 53.4277 69.1559 53.2579C69.4024 53.0882 69.5956 52.9473 69.6962 52.8563C69.5525 52.9531 69.4064 53.046 69.2608 53.1404C69.4174 53.0379 69.573 52.9338 69.7275 52.8283C69.721 52.8353 69.7074 52.8464 69.6962 52.8563C73.0815 50.56 75.9654 47.5426 78.1263 44.1026C80.2967 40.6656 81.7091 36.7885 82.2944 32.8457C82.1674 34.4271 81.8757 35.6899 81.5069 36.7981ZM76.8303 12.7932C77.7622 14.1911 78.5677 15.6683 79.2374 17.2073C79.3148 17.3761 79.3879 17.5474 79.46 17.7191C80.9969 21.4571 81.6961 25.467 81.5936 29.4173C81.6196 28.1102 81.5323 26.8037 81.3864 25.5083C81.2214 24.0154 80.9164 22.5403 80.5119 21.0976C79.7186 18.2044 78.4301 15.4622 76.7944 12.9624C76.9446 13.1684 77.1028 13.3917 77.2666 13.6285C77.442 13.8736 77.6063 14.1264 77.759 14.3861L77.5614 14.045L77.3481 13.7131L76.9214 13.05C76.6309 12.6121 76.316 12.1901 76.0128 11.7607C75.6839 11.3505 75.3721 10.9266 75.0299 10.5271C74.771 10.234 74.523 9.93108 74.2604 9.64167C75.1869 10.612 76.0568 11.6531 76.8303 12.7932ZM55.0769 0.354359C55.5312 0.378349 55.9864 0.42233 56.4416 0.456161C56.8144 0.487224 57.1854 0.541969 57.5527 0.583182C57.6629 0.587795 57.7793 0.595177 57.9255 0.611477C58.0714 0.631469 58.2457 0.668683 58.4733 0.720353C60.1669 1.00085 61.7121 1.42251 62.8089 1.85801C64.9141 2.64935 66.8727 3.63384 68.6492 4.77088C70.4264 5.90577 72.0212 7.19659 73.3704 8.60643C73.9922 9.2766 73.8108 9.13051 73.468 8.80512L73.9826 9.34765C73.7547 9.1219 73.5308 8.89308 73.2995 8.67225L72.587 8.02946C72.7604 8.18016 73.1809 8.54092 73.468 8.80512C71.1798 6.48644 68.5053 4.56113 65.6102 3.14483C62.7129 1.72914 59.5931 0.854755 56.4744 0.505678C56.9755 0.561038 57.2213 0.57334 57.4554 0.579491C57.1194 0.540432 56.7825 0.486917 56.4416 0.456161C55.9836 0.426328 55.5265 0.38573 55.0719 0.363586L53.7218 0.331908C54.1689 0.3316 54.622 0.343902 55.0769 0.354359Z" fill="white"/>
<path d="M60.9783 56.8027L61.1103 56.7643C60.9721 56.8012 60.8362 56.8418 60.6972 56.8768C60.7913 56.8535 60.8858 56.8307 60.9783 56.8027ZM74.7529 44.9498C76.0643 43.2314 77.2231 41.1782 77.9629 39.4094L77.9539 39.4113C76.077 43.8161 73.0327 47.6108 69.2337 50.4046C69.9082 49.939 70.5709 49.4567 71.2212 48.9582C72.0566 48.0909 73.4548 46.6804 74.7529 44.9498ZM36.0217 50.0844C38.2427 52.0565 40.921 53.7727 43.9021 54.9288C45.0646 55.3634 46.2509 55.7441 47.4642 56.0123C48.0662 56.1667 48.6809 56.262 49.2909 56.3755C49.5966 56.4293 49.9062 56.4592 50.2134 56.5022C50.5212 56.5419 50.8284 56.5868 51.1384 56.6047C49.739 56.4506 48.3498 56.2199 46.9975 55.8542C45.6462 55.4898 44.3214 55.0392 43.0434 54.4859C41.772 53.9238 40.5414 53.2749 39.3602 52.544C38.1878 51.8034 37.0761 50.9764 36.0217 50.0844ZM63.4355 53.6001L62.7484 53.868L62.0467 54.1005C61.5822 54.2666 61.1031 54.3909 60.6253 54.5228C61.1056 54.4029 61.5887 54.2909 62.0572 54.1371L62.7642 53.9224L63.4547 53.6718C63.4281 53.6583 63.2708 53.6887 63.4355 53.6001ZM55.3241 55.3495C54.9649 55.38 54.6039 55.3772 54.2422 55.3809C53.8805 55.3852 53.5182 55.3929 53.1556 55.3692L53.6436 55.4147C53.7928 55.4243 53.9272 55.4356 54.0446 55.4495C54.4723 55.4132 54.8968 55.403 55.3241 55.3495ZM41.0046 52.0414C41.4198 52.2835 41.8608 52.4966 42.2984 52.7316C42.408 52.7913 42.6068 52.8592 42.8561 52.9496C42.3231 52.7224 41.8125 52.4406 41.2935 52.1792C41.0365 52.0436 40.789 51.8916 40.537 51.7502C40.2855 51.6075 40.035 51.4651 39.7972 51.3057L40.0873 51.4983L40.3899 51.6779L41.0046 52.0414Z" fill="white"/>
<path d="M62.9827 16.2274C63.778 15.9486 65.0878 15.2517 65.4152 13.765C65.7895 11.9995 64.9474 10.7915 62.7956 10.4198C60.4099 10.0017 55.5449 10.838 50.9605 12.9751C47.0311 14.8336 42.9145 17.6676 42.1661 20.8734C41.4644 24.0792 43.0549 26.588 47.686 30.8624C49.0426 32.1168 50.2121 33.2319 51.1944 34.254C56.2933 32.2098 66.0701 29.4686 67.1928 29.2363C68.4091 28.9575 68.643 29.5151 67.38 29.7474C66.304 29.9797 57.0418 32.6279 51.8026 34.858C55.4045 38.6213 56.6208 41.0372 56.153 44.0107C55.5917 47.7275 50.9605 49.8183 46.1423 49.3537C41.5112 48.9355 39.3593 46.2408 39.7804 43.7784C40.3885 40.5262 44.5986 37.5527 49.1829 35.1832C49.4636 34.9974 49.8846 34.858 50.2588 34.6722C49.37 33.743 48.2474 32.6744 47.0311 31.4664C41.8854 26.6345 40.1078 24.1256 40.8563 20.6876C41.6047 17.2495 44.4583 14.6477 50.3992 12.0459C56.3869 9.39769 60.4567 9.11892 62.9827 9.53707C65.7427 10.0017 66.7718 11.8136 66.304 13.9973C65.8362 15.9486 63.8248 16.9243 63.2634 16.9707C62.7021 17.0637 62.4214 16.4597 62.9827 16.2274ZM55.0771 43.7784C55.4513 41.4554 54.6093 39.3182 50.867 35.2761C50.446 35.462 50.1185 35.6478 49.7911 35.8337C44.0372 38.9465 41.2305 41.2695 40.7627 43.7784C40.3885 45.9156 42.3532 48.0063 46.1891 48.2851C50.867 48.5638 54.6093 46.3802 55.0771 43.7784Z" fill="white"/>
<path d="M2.8785 72.112C1.35944 72.112 0.247169 71.3909 0 70.1635L1.04531 69.918C1.21009 70.7618 1.94646 71.2477 2.91452 71.2477C3.69206 71.2477 4.43874 70.9306 4.42329 70.0612C4.41299 69.2019 3.47579 68.9667 2.48198 68.6956C1.35428 68.3888 0.226552 68.0359 0.226552 66.7062C0.226552 65.3611 1.34397 64.686 2.66735 64.686C3.94954 64.686 5.103 65.223 5.3758 66.4658L4.38198 66.7164C4.20175 65.9135 3.52718 65.5555 2.71359 65.5555C1.98239 65.5555 1.25633 65.8725 1.25633 66.696C1.25633 67.4427 2.06992 67.6626 2.99166 67.9081C4.15026 68.22 5.4788 68.578 5.4788 70.0305C5.4788 71.4932 4.24309 72.112 2.8785 72.112ZM11.3968 72.112C9.88806 72.112 8.71923 71.2272 8.71923 69.5958V64.7832H9.74395V69.4525C9.74395 70.6442 10.4649 71.1914 11.3969 71.1914C12.3289 71.1914 13.0653 70.639 13.0653 69.4525V64.7832H14.09V69.5958C14.09 71.2272 12.9159 72.112 11.3968 72.112ZM21.388 68.2303C22.2479 68.4451 22.8247 69.0332 22.8247 70.0408C22.8247 71.2017 22.0317 72.0149 20.7237 72.0149H17.8608V64.7833H20.0956C21.4396 64.7833 22.2892 65.5607 22.2892 66.7063C22.2892 67.3916 21.975 67.9541 21.388 68.2303ZM21.3313 66.7726C21.3313 66.1486 20.8782 65.6627 20.0903 65.6627H18.8545V67.9131H20.25C20.9091 67.9131 21.3313 67.4016 21.3313 66.7726ZM20.5488 71.1198C21.3778 71.1198 21.8259 70.5675 21.8259 69.9384C21.8259 69.2736 21.3573 68.7417 20.487 68.7417H18.8547V71.1198H20.5488ZM27.2082 71.0943H29.6954V72.0148H26.1836V64.7833H27.2083L27.2082 71.0943ZM32.7915 72.0148V64.7833H33.8163V72.0148H32.7915ZM45.553 72.0148H44.5489L44.07 66.1334L41.8197 72.0148H41.1967L38.9618 66.1538L38.4726 72.0148H37.4634L38.0247 64.7833H39.4098L41.5056 70.2505L43.6117 64.7833H44.9969L45.553 72.0148ZM53.155 65.6987H50.2404V67.949H52.8099V68.8594H50.2404V71.0943H53.155V72.0149H49.195V64.7833H53.155V65.6987ZM65.5524 64.7833H66.6338L63.9562 72.0148H62.8851L60.2178 64.7833H61.294L63.4258 70.7671L65.5524 64.7833ZM69.7299 72.0148V64.7833H70.7546V72.0148H69.7299ZM78.5572 64.7833V65.6987H76.7137V72.0149H75.6993V65.6987H73.8507V64.7833H78.5572ZM86.3599 72.0148L85.7523 70.3271H82.4978L81.8902 72.0148H80.8243L83.5071 64.7833H84.743L87.4258 72.0148H86.3599ZM82.8172 69.4372H85.4331L84.1252 65.7907L82.8172 69.4372ZM91.5468 71.0943H94.0339V72.0148H90.5221V64.7833H91.5469L91.5468 71.0943ZM97.1301 72.0148V64.7833H98.1548V72.0148H97.1301ZM105.957 64.7833V65.6987H104.114V72.0149H103.1V65.6987H101.251V64.7833H105.957ZM113.977 64.7833L111.582 68.5678V72.0148H110.547V68.5728L108.148 64.783H109.311L111.062 67.6521L112.818 64.783H113.977V64.7833Z" fill="white"/>
<path d="M31.7187 79.2781H32.1413L31.0949 82.1045H30.6763L29.6338 79.2781H30.0544L30.8876 81.6167L31.7187 79.2781ZM33.161 82.1045V79.2781H33.5615V82.1045H33.161ZM36.6679 79.2781H37.0905L36.0441 82.1045H35.6255L34.583 79.2781H35.0036L35.8368 81.6167L36.6679 79.2781ZM39.6578 79.6359H38.5187V80.5153H39.5229V80.8711H38.5187V81.7446H39.6578V82.1044H38.1102V79.278H39.6578V79.6359ZM43.2506 82.1424C42.6569 82.1424 42.2222 81.8606 42.1256 81.3809L42.5341 81.285C42.5985 81.6147 42.8863 81.8046 43.2646 81.8046C43.5685 81.8046 43.8603 81.6807 43.8543 81.3409C43.8503 81.0051 43.484 80.9132 43.0956 80.8073C42.6549 80.6873 42.2141 80.5494 42.2141 80.0297C42.2141 79.5041 42.6508 79.2402 43.168 79.2402C43.6691 79.2402 44.1199 79.4501 44.2266 79.9358L43.8382 80.0337C43.7678 79.7199 43.5041 79.58 43.1861 79.58C42.9004 79.58 42.6166 79.7039 42.6166 80.0257C42.6166 80.3176 42.9346 80.4035 43.2948 80.4995C43.7476 80.6214 44.2668 80.7613 44.2668 81.3289C44.2668 81.9006 43.7839 82.1424 43.2506 82.1424ZM47.2425 82.1045L47.0051 81.4448H45.7332L45.4957 82.1045H45.0791L46.1276 79.2781H46.6106L47.6591 82.1045H47.2425ZM45.858 81.0971H46.8803L46.3691 79.6719L45.858 81.0971ZM50.5966 79.2781H50.995V82.1045H50.5624L49.0751 79.8618V82.1045H48.6787V79.2781H49.1073L50.5966 81.5107L50.5966 79.2781ZM53.3248 82.1424C52.7351 82.1424 52.2783 81.7966 52.2783 81.159V79.2782H52.6788V81.1031C52.6788 81.5688 52.9605 81.7826 53.3248 81.7826C53.6891 81.7826 53.9769 81.5668 53.9769 81.1031V79.2782H54.3773V81.159C54.3773 81.7966 53.9185 82.1424 53.3248 82.1424ZM56.5521 82.1424C55.9584 82.1424 55.5237 81.8606 55.4271 81.3809L55.8356 81.285C55.9 81.6147 56.1878 81.8046 56.5661 81.8046C56.87 81.8046 57.1618 81.6807 57.1558 81.3409C57.1518 81.0051 56.7855 80.9132 56.3971 80.8073C55.9564 80.6873 55.5156 80.5494 55.5156 80.0297C55.5156 79.5041 55.9523 79.2402 56.4695 79.2402C56.9706 79.2402 57.4214 79.4501 57.5281 79.9358L57.1397 80.0337C57.0693 79.7199 56.8056 79.58 56.4876 79.58C56.2019 79.58 55.9181 79.7039 55.9181 80.0257C55.9181 80.3176 56.2361 80.4035 56.5963 80.4995C57.0491 80.6214 57.5683 80.7613 57.5683 81.3289C57.5683 81.9006 57.0853 82.1424 56.5521 82.1424ZM62.0124 79.2781H62.435L61.3885 82.1045H60.9699L59.9274 79.2781H60.348L61.1812 81.6167L62.0124 79.2781ZM63.4546 82.1045V79.2781H63.8551V82.1045H63.4546ZM66.9616 79.2781H67.3842L66.3377 82.1045H65.9191L64.8766 79.2781H65.2972L66.1304 81.6167L66.9616 79.2781ZM69.9514 79.6359H68.8124V80.5153H69.8166V80.8711H68.8124V81.7446H69.9514V82.1044H68.4038V79.278H69.9514V79.6359ZM74.2164 79.6359H73.0612V80.5133H74.0654V80.8711H73.0612V82.1044H72.6527V79.278H74.2164V79.6359ZM76.8298 79.6359H75.6908V80.5153H76.695V80.8711H75.6908V81.7446H76.8298V82.1044H75.2822V79.278H76.8298V79.6359ZM78.3847 81.7447H79.3568V82.1045H77.9842V79.2781H78.3847V81.7447ZM80.3763 82.1045V79.2781H80.7768V82.1045H80.3763ZM81.7924 82.1045L82.9012 80.6294L81.8407 79.2782H82.3257L83.1407 80.3455L83.9517 79.2782H84.4388L83.3762 80.6294L84.4851 82.1045H83.9779L83.1407 80.9392L82.3015 82.1045H81.7924Z" fill="white"/>
</svg>
